<?xml version="1.0" encoding="UTF-8"?>
<svg width="105px" height="34px" viewBox="0 0 105 34" version="1.1" xmlns="http://www.w3.org/2000/svg" xmlns:xlink="http://www.w3.org/1999/xlink">
    <!-- Generator: Sketch 41.2 (35397) - http://www.bohemiancoding.com/sketch -->
    <title>black/icon/aliyun</title>
    <desc>Created with Sketch.</desc>
    <defs></defs>
    <g id="Page-2" stroke="none" stroke-width="1" fill="none" fill-rule="evenodd">
        <g id="Desktop-Landscape" transform="translate(-682.000000, -1455.000000)">
            <g id="Black" transform="translate(70.000000, 1100.000000)">
                <g id="black/icon/aliyun" transform="translate(582.000000, 317.000000)">
                    <rect id="Rectangle" x="0" y="0" width="165" height="110"></rect>
                    <g id="Group" transform="translate(30.000000, 38.000000)" fill="#000000">
                        <path d="M21.9965961,34 C28.1830093,33.8309079 30.4178555,29.6020161 30.4178555,25.8806276 L30.4178555,3.55252317 L31.2763312,3.55252317 L32.1354976,0.169545749 L13.7475848,0.169545749 L14.6067512,3.55252317 L26.9804986,3.55252317 L26.9804986,25.5424431 C26.9804986,28.7563285 24.5740955,30.7861149 21.1371993,30.7861149 L21.9965961,34 L21.9965961,34 L21.9965961,34 Z M22.6842058,26.3881307 C23.5436026,25.5424431 23.8874074,24.3583443 23.8874074,22.4976499 L23.8874071,6.59708956 L13.9200628,6.59708956 L13.9200628,27.572003 L19.4188666,27.572003 C20.7940855,27.5722296 21.9965961,27.2338186 22.6842058,26.3881307 L22.6842058,26.3881307 Z M17.356959,24.0199332 L17.356959,9.98029358 L20.4502807,9.98029358 L20.4502807,22.1592389 C20.4502807,23.5124299 19.9349191,24.0199332 18.7317175,24.0199332 L17.356959,24.0199332 L17.356959,24.0199332 Z M0,0.000226818833 L0,34 L3.43712642,34 L3.43712642,32.4774901 L3.43712642,14.2089586 L3.43712642,3.55229635 L7.56117166,3.55229635 L4.98344184,14.2089586 L4.98344184,14.2089586 L4.98344184,14.2089586 C6.01508645,15.0546462 7.90520659,17.2537516 7.90520659,20.97514 C7.90520659,24.6965285 5.67128172,26.0497195 4.98344184,26.3879039 L4.98344184,29.9402003 C6.87425283,29.7711082 11.5136597,27.2338183 11.5136597,21.1442324 C11.5136597,17.4228439 10.1389013,14.8855541 8.93592992,13.1939521 L12.0299425,0 L0,2.21502791e-07 L0,0.000226818833 Z M38.6657155,30.616796 L37.9787969,34 L68.5679791,34 L67.7088127,30.616796 L54.9919512,30.616796 L54.9919512,26.3879041 L66.6771681,26.3879041 L65.8177713,23.0049267 L54.8194732,23.0049267 L54.8194732,18.7760349 L62.7244496,18.7760349 C66.5053808,18.7760349 68.3955011,16.9153405 68.3955011,13.1939521 L68.3955011,0 L37.9787969,2.21502741e-07 L37.9787969,18.7760349 L51.382577,18.7760349 L51.382577,22.8356078 L40.384279,22.8356078 L39.5248821,26.2185852 L51.2107899,26.2185852 L51.2107899,30.6165692 L38.6657155,30.6165692 L38.6657155,30.616796 Z M54.9919512,11.1643924 L63.0684846,11.1643924 L62.2090877,7.78141501 L54.991951,7.78141501 L54.991951,3.55252317 L64.9586047,3.55252317 L64.9586047,13.0250866 C64.9586047,14.7166886 64.2716861,15.3932841 62.8969276,15.3932841 L54.9919512,15.3932841 L54.9919512,11.1643924 L54.9919512,11.1643924 Z M41.5874803,15.3930575 L41.5874803,3.55229658 L51.5548246,3.55229658 L51.5548246,7.78118841 L44.336767,7.78118819 L43.4773702,11.1641656 L51.5548248,11.1641656 L51.5548248,15.3930575 L41.5874803,15.3930575 L41.5874803,15.3930575 Z M101.734431,0.000226818833 L77.6754662,0.000226818833 L76.8160694,3.55229658 L102.593597,3.55229658 L101.734431,0.000226818833 Z M76.3007077,33.661589 L76.1291508,34 L99.6727534,34 C101.047512,34 102.078235,33.661589 102.766075,32.8159011 C103.452994,31.8011212 103.281437,30.6170226 102.937632,29.9404271 L102.937632,29.9404271 C102.593827,28.2488251 101.219069,22.3285578 100.875264,21.4826436 L100.875264,21.3135515 L97.2665808,21.3135515 L97.4388286,21.6519626 C97.6103855,22.4976502 99.1564707,28.5872363 99.5005056,30.6170228 L80.597231,30.6170228 C81.4563974,26.726542 83.0036341,19.9603606 83.8628004,16.7464752 L105,16.7464752 L104.140603,13.3632712 L75.2699842,13.363271 L74.4105874,16.746475 L80.2531958,16.746475 C79.5662772,19.7910414 77.5039093,28.2488251 76.3007077,33.661589 L76.3007077,33.661589 Z" id="Shape"></path>
                    </g>
                </g>
            </g>
        </g>
    </g>
</svg>