<?xml version="1.0" encoding="UTF-8"?>
<svg width="79px" height="72px" viewBox="0 0 79 72" version="1.1" xmlns="http://www.w3.org/2000/svg" xmlns:xlink="http://www.w3.org/1999/xlink">
    <!-- Generator: Sketch 41.2 (35397) - http://www.bohemiancoding.com/sketch -->
    <title>black/icon/atom</title>
    <desc>Created with Sketch.</desc>
    <defs></defs>
    <g id="Page-2" stroke="none" stroke-width="1" fill="none" fill-rule="evenodd">
        <g id="Desktop-Landscape" transform="translate(-691.000000, -1685.000000)">
            <g id="Black" transform="translate(70.000000, 1100.000000)">
                <g id="black/icon/atom" transform="translate(578.000000, 566.000000)">
                    <rect id="Rectangle" x="0" y="0" width="165" height="110"></rect>
                    <g id="Group" transform="translate(43.000000, 19.000000)" fill="#000000">
                        <path d="M63.3727281,17.9289066 C64.7760185,10.771741 63.8563919,5.44398855 60.2947393,3.12617711 C59.0419697,2.3109145 57.551854,1.94397221 55.8977127,2.00690211 C47.9119926,2.31070969 35.872852,12.800789 26.2230547,27.6913062 C14.4761271,45.8178866 10.2888815,64.0528535 17.6853275,68.8662226 C21.2899616,71.2120044 26.5952346,69.831987 32.6340418,65.5196755 L30.901158,63.0828276 C25.7551192,66.7576133 21.5918346,67.8405746 19.3116298,66.3566894 C13.9862907,62.8911301 17.835554,46.1280361 28.7273408,29.321016 C37.8931629,15.1773168 49.2830167,5.2529813 56.0109933,4.99702314 C57.0760836,4.956503 57.9587299,5.17385544 58.6684366,5.63570996 C60.916514,7.09868801 61.6359134,11.266447 60.4427283,17.3520179 L63.3727281,17.9289066 Z" id="Shape"></path>
                        <path d="M69.0854137,48 C75.1610444,45.662179 78.7824404,42.3910246 78.9908102,38.4473678 C79.4575129,29.6143158 62.0894185,22.2841807 40.3150054,21.1522802 C38.2654016,21.0457356 36.3110168,20.9942565 34.438148,21.0005082 C15.198335,21.0647321 0.431591608,26.3512552 0.00941646599,34.341554 C-0.198490232,38.2765005 3.04561482,41.8927683 8.82591583,44.846918 L10.2087069,42.1849256 C5.37002577,39.7120114 2.89463614,36.9526459 3.02431505,34.4982777 C3.32245792,28.8554761 16.7337884,24.0541934 34.4483079,23.9950611 C36.2628872,23.989004 38.1615041,24.0390142 40.1570014,24.1427461 C60.3464366,25.1922546 76.311959,31.9304399 75.9759116,38.290643 C75.8458061,40.7530524 73.08083,43.2506151 67.9935194,45.2081439 L69.0854137,48 Z" id="Shape"></path>
                        <path d="M35.7279973,4.89558442 C31.6178334,1.52173246 27.7805085,-0.219211954 24.5281853,0.0221141236 C23.5684698,0.0933261313 22.6760365,0.332744298 21.8509117,0.748683034 C13.8156084,4.79921641 16.1203006,23.5743826 26.1250331,43.0003947 C36.1320926,62.4309271 50.1146344,75.3042037 58.1486925,71.2542956 C65.8665936,67.3637614 64.0627997,49.901129 54.9582878,31.1849425 L52.2078218,32.4945276 C60.6270721,49.8020189 62.2778744,65.7835307 56.762924,68.5635745 C50.9774692,71.4799786 38.1234648,59.6457102 28.844756,41.6294037 C19.56808,23.6170461 17.4493422,6.35675585 23.2366795,3.43940448 C23.6933484,3.20920136 24.1920875,3.07540178 24.7564782,3.03352334 C27.0569399,2.86282646 30.2188441,4.29734128 33.7789249,7.21965433 L35.7279973,4.89558442 Z" id="Shape"></path>
                        <path d="M45,36.5 C45,38.9852814 42.7614237,41 40,41 C37.2385763,41 35,38.9852814 35,36.5 C35,34.0147186 37.2385763,32 40,32 C42.7614237,32 45,34.0147186 45,36.5 Z" id="Shape"></path>
                    </g>
                </g>
            </g>
        </g>
    </g>
</svg>