<?xml version="1.0" encoding="UTF-8"?>
<svg width="137px" height="52px" viewBox="0 0 137 52" version="1.1" xmlns="http://www.w3.org/2000/svg" xmlns:xlink="http://www.w3.org/1999/xlink">
    <!-- Generator: Sketch 41.2 (35397) - http://www.bohemiancoding.com/sketch -->
    <title>black / icon / babel</title>
    <desc>Created with Sketch.</desc>
    <defs></defs>
    <g id="Icon" stroke="none" stroke-width="1" fill="none" fill-rule="evenodd">
        <g id="Desktop-Landscape" transform="translate(-969.000000, -2564.000000)">
            <g id="知识框架" transform="translate(0.000000, 1642.000000)">
                <g id="Black" transform="translate(74.000000, 327.000000)">
                    <g id="black-/-icon-/-babel" transform="translate(881.000000, 566.000000)">
                        <rect id="Rectangle" x="0" y="0" width="165" height="110"></rect>
                        <g id="Group" transform="translate(14.000000, 29.000000)" fill="#000000">
                            <path d="M121.429532,2.04390472 C121.070559,3.6464269 120.487227,4.83185427 119.701973,5.62213919 L119.141078,5.27090145 C119.746845,3.7561887 120.038511,2.87809435 120.016075,2.65857076 L119.859024,2.41709482 C119.657102,2.43904717 119.387872,2.96590378 119.051334,4.019617 L118.759668,4.04156936 C118.737233,3.84399813 118.692361,3.69033162 118.602618,3.53666511 L118.468003,3.55861747 C115.820574,10.7809435 114.631475,14.1396544 112.18597,19.6936011 C111.737253,21.1205044 111.355844,21.9107894 111.019306,22.0644559 C111.041742,22.2181224 111.131485,22.3059318 111.310972,22.2839794 C111.37828,22.9864549 111.198793,23.666978 110.817384,24.3475012 C109.673156,27.5305932 108.932774,29.2867819 108.551365,29.5941149 L108.798159,31.1088277 C108.820595,31.2624942 108.730851,31.372256 108.551365,31.372256 L108.282135,31.3942083 C108.237263,30.9771135 108.080212,30.7795423 107.810982,30.8014946 L107.676367,30.823447 C107.33983,31.3503036 107.0706,31.9649696 106.891113,32.6674451 L107.160343,32.6454928 C107.519316,32.4259692 107.676367,32.1625409 107.653931,31.8332555 L108.192391,31.7893508 L108.484057,31.8991126 C108.237263,32.2723027 108.125084,32.5796357 108.14752,32.7991593 L108.282135,33.0406352 L107.945597,33.8309201 L107.968033,33.9626343 C108.282135,33.9406819 108.618672,34.0284914 108.977646,34.2480149 C109.22444,34.2260626 109.49367,34.1163008 109.785335,33.9406819 C110.099437,33.9187296 111.221229,33.8967772 113.195582,33.8967772 L114.182759,33.5674918 C115.394294,33.5455395 115.57378,33.5894442 116.628264,33.5016348 L117.054545,33.45773 L117.278903,33.3040635 L117.301339,33.4357777 C118.378259,33.3479682 118.468003,33.4138253 119.320564,33.5235871 L119.343,33.6553013 L118.737233,33.699206 L118.759668,33.9406819 C118.939155,33.9187296 119.096206,33.8748248 119.230821,33.7650631 C119.387872,33.7431107 119.477615,33.8309201 119.500051,34.006539 C119.253257,34.0284914 118.984027,34.0943484 118.669925,34.1821579 L118.400695,34.0943484 C117.974414,34.2041102 118.064158,34.2260626 117.794928,34.2480149 L117.368647,34.1602055 C117.368647,34.2260626 117.346211,34.2699673 117.278903,34.2919197 C117.301339,34.4455862 117.368647,34.5333956 117.525698,34.5114433 L118.041722,34.4675385 L117.817363,34.3797291 C117.817363,34.4455862 117.862235,34.4894909 117.951978,34.4894909 L120.173126,34.2919197 L121.025687,34.1163008 C121.025687,34.1821579 121.070559,34.2260626 121.137867,34.2260626 L121.541712,34.0723961 L122.30453,34.006539 C122.910297,33.9626343 122.887862,33.9187296 124.166704,33.7211583 C124.166704,33.6553013 124.18914,33.6113965 124.256447,33.6113965 L124.256447,33.7211583 C126.701953,33.3260159 126.477595,33.3479682 126.993619,33.1723494 L126.88144,32.9089211 C126.185929,33.0625876 126.208365,32.9747781 125.849391,33.0186829 L123.987217,33.1064923 L123.964781,32.9747781 L124.99683,32.843064 L125.378239,32.8211116 L125.580161,32.6674451 L125.602597,32.7991593 C127.060926,32.6674451 127.57695,33.0406352 134.375008,31.6356843 C134.733981,31.6137319 134.711545,31.3063989 134.935903,30.6917328 C134.801288,30.6917328 134.689109,30.6697805 134.57693,30.6039234 C134.016034,30.823447 133.724368,30.7136852 132.647449,30.8893041 C132.557705,30.8893041 132.490398,30.823447 132.445526,30.6478281 L132.445526,30.5380663 L133.477574,30.581971 C133.657061,30.5600187 134.060906,30.5380663 134.599366,30.2307333 C134.711545,30.2965904 134.509623,30.3624475 134.621802,30.3404951 L134.801288,30.3185427 C134.913468,30.3185427 134.958339,30.2307333 134.958339,30.0551144 L134.84616,29.8136385 C134.150649,29.8794956 133.814112,29.9014479 133.253216,30.2087809 L133.23078,30.0770668 L132.378219,30.1648762 C132.355783,29.9014479 132.288475,29.7916861 132.176296,29.7916861 L131.727579,29.8355908 C131.211555,29.8794956 130.964761,29.8575432 130.717967,30.0551144 C130.717967,29.967305 130.673095,29.9234003 130.628224,29.9234003 L130.134635,29.967305 L129.84297,30.1209715 C129.84297,30.0331621 129.798098,29.9892574 129.753226,29.9892574 L129.57374,30.1429239 L129.551304,30.0112097 L128.878229,29.967305 L128.721178,29.9892574 L128.743614,30.2307333 L129.102587,30.3185427 L129.416689,30.2965904 C129.528868,30.3624475 129.663483,30.3843998 129.798098,30.3843998 L130.089764,30.2526857 L130.089764,30.3624475 C128.49682,30.7575899 128.49682,30.6697805 127.397464,30.8673517 C127.262849,30.7795423 127.173105,30.7575899 127.128234,30.7575899 C127.016055,30.8673517 127.262849,30.7795423 127.195541,30.7795423 C127.016055,30.8014946 126.926311,30.7136852 126.903875,30.5600187 L127.464771,30.4941616 C127.509643,30.4941616 127.532079,30.5380663 127.84618,30.6039234 C128.294897,30.3843998 128.317333,30.2965904 128.564127,30.274638 L128.541691,30.0331621 C126.971183,30.3404951 127.599386,30.1429239 125.625033,30.2965904 L125.53529,30.2965904 L125.512854,30.0551144 C128.048103,29.7477814 127.195541,29.9234003 128.048103,29.6819243 C128.048103,29.7697338 128.092975,29.8136385 128.137846,29.8136385 C128.22759,29.7258291 128.362205,29.659972 128.49682,29.659972 L128.676306,29.6380196 C129.551304,29.5721625 129.865405,29.7477814 131.6154,29.2648295 L131.6154,29.3745913 L131.907066,29.2428772 L132.176296,29.2209248 C132.15386,28.9574965 132.557705,28.9355441 132.669884,28.9135918 L132.647449,28.6501635 C129.57374,29.2648295 128.76605,29.0892106 127.913488,29.3306866 L127.913488,29.2209248 C127.105798,29.3745913 127.083362,29.2867819 126.88144,29.3087342 C126.814132,29.3087342 126.724389,29.3745913 126.634645,29.4624007 C126.634645,29.3745913 126.589774,29.3306866 126.522466,29.3306866 C126.387851,29.3306866 126.455159,29.3745913 126.34298,29.4843531 L126.522466,29.3306866 L123.852602,29.7477814 C123.852602,29.6819243 123.807731,29.6380196 123.740423,29.6380196 C122.394273,29.9234003 122.753247,29.967305 120.935944,30.1209715 C120.846201,30.1209715 120.734022,30.1648762 120.599407,30.2526857 C120.599407,30.1868286 120.554535,30.1429239 120.464792,30.1429239 L119.343,30.2307333 L118.602618,30.4063522 C118.602618,30.3404951 118.557746,30.2965904 118.468003,30.2965904 C118.041722,30.4063522 117.682748,30.4722092 117.391083,30.4941616 L117.368647,30.4941616 C117.18916,30.516114 117.45839,30.4502569 117.323775,30.3843998 L117.099417,30.516114 C116.762879,30.5380663 116.942366,30.4941616 115.820574,30.516114 C113.846221,30.7575899 114.070579,30.7795423 113.846221,30.8014946 L113.105839,30.7575899 C113.105839,30.823447 113.083403,30.8673517 112.993659,30.8893041 C112.163534,30.7795423 111.737253,30.6478281 111.714817,30.4941616 C111.826996,29.7258291 112.006483,29.3306866 112.298149,29.2867819 L112.432764,29.2648295 L112.298149,29.5282578 L112.432764,29.5063055 C112.701994,29.3745913 112.814173,29.2428772 112.814173,29.111163 L112.791737,28.8477347 L112.522507,28.8696871 L112.500071,28.6282111 C112.477635,28.4306399 112.500071,28.2769734 112.567379,28.1233069 L113.173146,27.1793554 L113.195582,27.4208314 L113.487248,27.398879 L113.464812,27.1574031 L113.307761,26.9159271 C113.509684,26.7403083 113.68917,26.6305465 113.823785,26.6305465 L113.801349,26.4988323 L113.41994,26.5207847 L113.397504,26.1475946 C114.160323,24.5670248 114.541732,23.6450257 114.519296,23.4035497 L114.788526,23.5133115 C114.968013,23.4913592 115.057756,23.4035497 115.03532,23.2279309 L114.76609,23.2498832 L114.76609,23.1401214 C114.743654,22.9425502 114.788526,22.7669313 114.855834,22.6132648 C115.282114,22.19617 115.461601,21.7571228 115.416729,21.2961233 C115.506473,21.2961233 115.551344,21.340028 115.551344,21.4278375 C115.910318,21.2302662 116.179548,20.7034096 116.38147,19.8253153 C117.009673,18.705745 117.907107,16.4666044 119.07377,13.1298459 C121.317353,7.22466137 121.22761,6.58804297 121.541712,5.20504437 L121.272482,5.22699673 C121.294917,5.4026156 121.250046,5.57823447 121.160302,5.73190098 C120.980816,5.6660439 120.823765,5.62213919 120.734022,5.62213919 L120.734022,5.51237739 C120.68915,5.00747314 120.913508,4.3928071 121.407097,3.66837926 L121.519276,3.66837926 L121.743634,4.52452125 L122.012864,4.50256889 C122.012864,4.43671182 122.080172,4.10742644 122.214787,3.47080803 C122.192351,3.33909388 122.102607,3.27323681 121.900685,3.25128445 L121.653891,3.40495096 C121.631455,3.22933209 121.653891,2.76833255 121.676327,2 L121.429532,2.04390472 L121.429532,2.04390472 Z M118.198773,5.84166277 L118.333388,5.81971042 C118.131465,6.17094816 117.974414,6.36851938 117.817363,6.39047174 L117.794928,6.01728164 C117.907107,5.99532929 118.041722,5.95142457 118.198773,5.84166277 Z M117.076981,8.47594582 C117.346211,7.40028024 117.615441,6.7856142 117.862235,6.63194769 L117.884671,6.76366184 C117.750056,7.77347034 117.525698,8.27837459 117.211596,8.32227931 L117.256468,8.95889771 C117.009673,9.28818309 116.897494,9.5516114 116.91993,9.74918262 L116.785315,9.77113498 L116.718008,8.89304064 C116.852623,8.87108828 116.987238,8.73937412 117.076981,8.47594582 L117.076981,8.47594582 Z M116.6507,9.90284914 C116.673136,10.0565156 116.560957,10.4077534 116.359034,10.93461 L116.224419,10.9565624 L116.201983,10.5833723 C116.359034,10.1443251 116.516085,9.92480149 116.6507,9.90284914 Z M109.269311,25.8622139 L109.403926,26.1036899 C109.605849,26.0817375 109.695592,25.9939281 109.673156,25.8402616 L109.65072,25.7085474 L109.516105,25.7304998 L109.269311,25.8622139 L109.269311,25.8622139 Z M112.814173,28.7379729 L112.814173,28.8477347 C113.016095,28.8257823 113.218018,28.4745446 113.397504,27.7940215 L113.128274,27.7062121 C112.903916,28.2989257 112.814173,28.6282111 112.814173,28.7379729 L112.814173,28.7379729 Z M135.519235,29.5063055 L135.519235,29.6160673 L135.294877,29.8794956 L135.721158,29.7258291 L135.766029,29.7258291 L135.743593,29.4843531 L135.65385,29.4843531 L135.496799,29.6160673 C135.496799,29.5502102 135.967952,29.418496 135.608978,29.352639 C135.541671,29.4624007 135.721158,29.4843531 135.519235,29.5063055 Z M136.394233,30.2965904 L137,30.2526857 C136.977564,30.0990191 136.596155,30.0551144 136.46154,30.0551144 L136.371797,30.0551144 L136.394233,30.2965904 L136.394233,30.2965904 Z M125.669905,30.516114 L125.849391,30.7356376 C125.849391,30.6697805 125.871827,30.6258758 125.939135,30.6258758 L126.07375,30.8673517 L125.512854,30.8014946 C125.467982,30.6258758 125.53529,30.5380663 125.669905,30.516114 Z M123.830166,30.7136852 C124.032089,30.6917328 124.166704,30.823447 124.166704,30.9990659 L123.538501,30.9990659 L123.538501,30.8893041 C123.605808,30.8673517 123.717987,30.823447 123.830166,30.7136852 Z M125.26606,30.6478281 L125.288496,30.7795423 L124.772471,30.823447 L124.750036,30.6917328 L125.26606,30.6478281 Z M120.060947,31.1746847 C120.060947,31.2405418 120.105818,31.2844465 120.195562,31.2844465 C121.025687,31.13078 120.935944,31.1088277 121.339789,31.0649229 C121.474404,31.0429706 121.541712,31.13078 121.564147,31.2844465 L119.253257,31.4820177 L119.477615,31.5917795 L119.455179,31.4600654 L118.580182,31.5259225 L118.557746,31.3942083 L119.343,31.3283512 L120.060947,31.1746847 L120.060947,31.1746847 Z M122.439145,30.9771135 L122.439145,31.0868753 C122.371837,31.0868753 122.663503,31.1088277 122.528888,31.2185894 C122.0353,31.1746847 122.012864,31.13078 121.653891,31.1527324 L121.653891,31.0429706 L122.439145,30.9771135 Z M123.022477,30.9112564 L123.022477,31.0210182 L122.596196,31.0649229 L122.596196,30.9551611 L123.022477,30.9112564 Z M108.663544,33.150397 L108.68598,33.5235871 C108.551365,33.5455395 108.439186,33.45773 108.394314,33.2821112 L108.394314,33.1723494 L108.663544,33.150397 L108.663544,33.150397 Z M127.868616,32.8211116 L127.891052,33.0625876 L128.339769,33.0186829 L128.160282,32.9089211 L128.182718,33.0406352 L128.631435,32.8650163 C131.705144,32.535731 132.064117,32.6674451 132.019245,32.3162074 L132.019245,32.2064456 C128.9231,32.8869687 128.519255,32.7552546 127.868616,32.8211116 L127.868616,32.8211116 Z M132.669884,32.4040168 L133.118601,32.4918262 L133.096165,32.2503503 L132.647449,32.1625409 L132.669884,32.4040168 Z M119.387872,33.2601588 C119.522487,33.3260159 119.230821,33.391873 119.410308,33.3699206 L120.980816,33.2382064 L121.003252,33.3699206 C120.554535,33.4138253 120.262869,33.4796824 120.173126,33.5674918 C120.173126,33.4796824 120.128254,33.4357777 120.038511,33.4357777 L119.365436,33.5016348 L119.343,33.3699206 C119.522487,33.3479682 119.253257,33.3479682 119.387872,33.2601588 L119.387872,33.2601588 Z M126.657081,33.0845399 L126.791696,33.3260159 C127.30772,33.2162541 127.016055,33.2382064 127.15067,33.1284447 C127.15067,33.2162541 127.195541,33.2601588 127.240413,33.2601588 L127.599386,33.2382064 L127.57695,32.9747781 L126.634645,32.9528258 L126.657081,33.0845399 L126.657081,33.0845399 Z M117.772492,34.0284914 L117.682748,34.0284914 L117.660313,33.7870154 L117.750056,33.7870154 L117.772492,34.0284914 Z M110.750076,34.862681 L110.772512,34.9943951 L114.900705,34.6651098 L114.878269,34.4236338 L111.580202,34.6870621 L110.884691,34.5992527 L110.750076,34.862681 Z M115.349422,34.621205 L115.394294,34.621205 L115.371858,34.3797291 L115.326986,34.3797291 L115.349422,34.621205 Z M52.5290915,13.4152265 C49.6124333,16.8178421 48.1092326,18.6837926 47.9970534,19.0569827 C46.8079543,20.2643624 46.2246227,20.9887903 46.2919302,21.2302662 C45.9778285,21.4278375 45.8432135,21.6254087 45.8880852,21.8449323 C45.7983419,21.8668846 45.7310344,21.8229799 45.7085985,21.7351705 C45.1925744,22.5474078 44.4521919,23.052312 43.4425795,23.2937879 L42.3880954,23.5352639 C42.2534804,23.5572163 42.1861729,23.666978 42.1861729,23.8425969 L42.2086087,23.9743111 L42.6124537,23.8865016 L42.6348895,23.9962634 L41.7374562,24.3255488 L40.1445121,24.6767865 L39.3143863,24.7206913 C39.2022072,24.8304531 39.9650255,24.6987389 39.6733597,24.7865483 L38.6413114,25.0280243 C38.0131081,25.1816908 37.6541347,25.1158337 37.6092631,24.8743578 L37.4970839,24.8963101 C37.5643914,25.1377861 37.4970839,25.2914526 37.3175973,25.3353573 L37.5195198,25.2914526 L37.4297764,24.9182625 L35.5451665,25.3573097 L35.747089,25.4451191 C35.7246532,25.3573097 35.6349098,25.3353573 35.4554232,25.379262 L35.208629,25.5768333 L34.9169632,25.5109762 C34.6477332,25.6646427 34.4682466,25.7524521 34.4233749,25.7524521 L34.1317091,25.686595 C33.346455,26.1256422 33.9297866,26.1256422 33.8849149,26.1256422 L33.9522224,26.3671182 L34.4009391,26.2573564 L35.0964499,26.2134517 L35.0291424,26.4988323 C32.4714575,27.1574031 34.3336316,26.784213 33.6381208,26.9378795 L33.5035058,26.9598319 L33.5708133,27.2013078 L33.9746583,27.1134984 L33.9970941,27.2452125 C33.4810699,27.3549743 33.1894041,27.4647361 33.0996608,27.5744979 L33.077225,27.4427837 C32.40415,27.5964503 31.731075,28.1013545 31.0580001,28.9355441 C31.1701792,29.418496 29.7118501,30.0112097 36.5772148,28.4525922 C37.0483673,28.4306399 37.3175973,28.4306399 37.3849048,28.4086875 C37.3624689,28.3208781 37.4073406,28.2769734 37.4970839,28.255021 C38.2599022,28.1672116 37.9009289,28.2989257 38.3720814,28.1891639 L39.8528463,27.8598786 L39.5387447,28.0354974 C39.5163088,27.9696404 39.5611805,27.9257356 39.628488,27.9037833 C39.8079746,27.947688 39.9874613,27.9257356 40.1893838,27.8818309 L40.2791271,28.255021 L34.4233749,37.3432975 L33.1220966,38.9238674 L32.4938933,41.0093414 L32.6060725,40.9873891 L33.2342758,40.7239608 L33.0323533,41.536198 L33.0996608,41.777674 L33.2791475,41.9971976 C33.1894041,42.0191499 33.1669683,42.0630546 33.1894041,42.1508641 L33.21184,42.2825782 L33.4810699,42.2167212 C33.8624791,41.8874358 34.0195299,41.5801028 33.9746583,41.3166745 C34.4009391,41.3825315 34.6701691,41.4044839 34.804784,41.3825315 L34.8272199,41.5142457 C34.5804257,41.5801028 34.4458107,41.777674 34.4233749,42.1069594 L34.4458107,42.2386735 L34.5804257,42.2167212 C36.7118298,39.9556282 41.894507,32.2064456 46.0675718,26.9378795 C45.9329569,26.3671182 48.1092326,25.5768333 52.596399,24.5670248 L52.731014,24.5450724 C52.8880649,25.2255955 52.5515274,26.8939748 51.6989657,29.5502102 C51.1380699,31.1527324 50.8912758,32.0308267 50.9137116,32.1625409 C50.195765,34.2919197 49.8592275,35.4334423 49.9040992,35.6090612 L48.3111551,40.7020084 C47.2791068,43.3143391 46.4938527,46.0583839 45.9553927,48.9560953 C46.045136,48.9341429 46.2021868,48.9560953 46.3816735,49 L46.6060318,48.8024288 C46.6284677,48.8902382 46.6733393,48.9121906 46.7855185,48.9121906 L46.6957751,48.5390005 L47.3912859,48.5170481 C47.5932084,48.4731434 47.7726951,48.2097151 47.9073101,47.7487156 C47.8848743,47.0681924 48.0194893,46.6950023 48.3335909,46.6071929 C48.7598717,44.9827184 49.0291017,44.1485287 49.118845,44.1265764 C49.52269,42.5021018 49.8143558,41.5801028 50.0162783,41.3386268 C50.6220458,39.2312004 51.0483266,38.1335824 51.3399924,38.0677254 L51.4072999,38.3311537 L50.9810191,39.450724 C50.2182008,42.7655301 49.4329467,45.3998132 48.6476926,47.3316207 L48.8720509,48.2975245 L49.0066659,48.2755722 C50.9137116,44.2802429 53.6284473,36.3773937 57.1957446,24.5670248 C57.3079238,23.5352639 57.8015121,22.7230266 58.7213812,22.1522653 L58.5194588,21.9546941 L58.4970229,21.8449323 C58.9008679,21.7571228 59.1925337,21.6034563 59.3495845,21.3839327 C59.3271487,21.2961233 58.9681754,21.1644092 58.2726646,20.9887903 L60.3816328,12.1639421 C61.0098361,9.52965904 61.4361169,7.22466137 61.6604753,5.20504437 L61.6380394,5.07333022 C61.2117586,4.80990191 60.7854778,4.43671182 60.4040687,3.95375993 L60.4040687,3.42690332 L60.3816328,3.31714152 L60.2694537,3.33909388 C58.9681754,5.27090145 56.3656189,8.62961233 52.5290915,13.4152265 L52.5290915,13.4152265 Z M55.5130572,15.4128912 C55.6252364,15.8738907 55.4457497,16.7300327 54.9970331,17.9813171 C54.8624181,19.561887 54.2790865,20.4619337 53.269474,20.7034096 L53.2470382,20.5716955 L52.3496049,20.9009809 L51.9457599,20.9887903 C51.7438374,21.032695 51.5643507,21.032695 51.3848641,20.9668379 L51.2951208,20.6156002 C51.2726849,20.483886 52.5515274,18.7276973 55.1989556,15.3689865 L55.5130572,15.4128912 L55.5130572,15.4128912 Z M53.4489607,20.9009809 L53.7406265,20.8351238 L53.807934,21.0765997 C52.3944765,21.4936945 51.6092224,21.7132181 51.4521716,21.7571228 C51.3624283,21.7790752 51.2278133,21.8449323 51.0707624,21.9766464 C51.0483266,21.888837 50.8688399,21.888837 50.5098666,21.9546941 C50.4425591,21.7132181 51.4297358,21.3619804 53.4489607,20.9009809 L53.4489607,20.9009809 Z M39.5163088,24.5889771 L39.8304105,24.52312 L39.763103,24.2596917 L39.4490013,24.3255488 L39.5163088,24.5889771 Z M43.6220661,23.5352639 L43.6893736,23.7767398 L43.0162987,23.8206446 L42.9938628,23.6889304 L43.6220661,23.5352639 L43.6220661,23.5352639 Z M35.7695248,26.0597851 L35.7919607,26.1914993 L35.3656799,26.2793087 L35.343244,26.1475946 L35.7695248,26.0597851 Z M34.9842707,27.6623073 L35.0067065,27.7720691 L34.4906824,27.8818309 L34.4233749,27.640355 L34.9842707,27.6623073 L34.9842707,27.6623073 Z M36.2182415,27.398879 L36.2406773,27.5086408 L35.2983724,27.7281644 L35.2759365,27.6184026 L36.2182415,27.398879 Z M37.8560572,27.1354507 L37.8784931,27.2671649 L35.4105515,27.8159738 L35.343244,27.5744979 C36.7791373,27.333022 36.6220865,27.4208314 37.8560572,27.1354507 L37.8560572,27.1354507 Z M50.2182008,24.3255488 L50.4201233,24.5450724 C50.1284575,24.6109295 49.9040992,24.6987389 49.79192,24.8085007 L49.5002542,24.764596 C49.0515375,24.9402149 48.6476926,25.071929 48.3335909,25.1377861 L48.0643609,25.2036432 C47.9073101,25.2475479 47.7951309,25.1816908 47.7278234,25.0280243 L49.5899975,24.6109295 L50.2182008,24.3255488 L50.2182008,24.3255488 Z M51.5419149,24.0401681 L52.865629,23.7328351 L52.8880649,23.8645493 C52.1701182,24.0182158 51.6092224,24.1938347 51.2053774,24.3914059 L51.1829416,24.2596917 C51.2951208,24.2377394 51.4072999,24.1499299 51.5419149,24.0401681 Z M37.6316989,27.7281644 L38.2599022,27.5964503 L38.3272097,27.8379262 C38.0579797,27.9037833 38.2599022,27.9037833 37.9233647,28.0574498 C37.2727256,28.1233069 37.4073406,28.0354974 36.3752923,28.2769734 L36.3528565,28.1452592 L37.6316989,27.7281644 Z M39.3368222,27.4427837 C39.5163088,27.398879 39.628488,27.4647361 39.6509238,27.640355 L39.2695147,27.7281644 C39.1124638,27.7720691 39.0002847,27.7062121 38.9329772,27.5305932 L39.3368222,27.4427837 L39.3368222,27.4427837 Z M32.3144067,41.3166745 L32.3368425,41.4483886 C32.5163292,41.4044839 32.5836367,41.3166745 32.538765,41.1410556 L32.5163292,41.0093414 C32.3592783,41.0532461 32.2919708,41.1410556 32.3144067,41.3166745 Z M32.8528666,43.5119103 C32.8977383,43.6655768 32.9874816,43.7314339 33.1669683,43.6875292 C33.346455,43.6436245 33.4137624,43.555815 33.3688908,43.3801962 L33.346455,43.248482 L33.077225,43.3143391 L32.8528666,43.5119103 L32.8528666,43.5119103 Z M47.1669276,47.287716 C47.3464143,47.2438113 47.4361576,47.3096684 47.4810293,47.4633349 L47.5034651,47.595049 L46.987441,47.7048108 C47.0323126,47.529192 47.0323126,47.3974778 47.0098768,47.3096684 L47.1669276,47.287716 L47.1669276,47.287716 Z" id="Shape"></path>
                            <path d="M68.2172161,6.15789474 C67.0553114,6.97453311 65.7369963,7.81324278 64.2622711,8.62988115 L64.2846154,8.87266553 C64.3739927,8.87266553 64.5080586,8.80645161 64.6868132,8.69609508 C64.8655678,8.67402377 64.9549451,8.762309 64.9772894,8.91680815 L65.2230769,8.78438031 L65.3347985,8.78438031 L65.3347985,8.89473684 C65.3571429,9.02716469 64.4186813,9.73344652 62.5864469,11.0135823 L62.7205128,11.278438 L62.6087912,11.278438 L62.318315,11.1680815 C62.318315,11.2563667 62.2065934,11.3225806 61.9384615,11.344652 L61.9384615,11.4550085 L62.2289377,11.8081494 C62.1395604,11.8081494 61.9831502,11.7860781 61.8043956,11.6977929 C61.2010989,11.7419355 60.6201465,12.1833616 60.0391941,12.9779287 L60.1732601,13.2207131 C60.6871795,12.7572156 60.9776557,12.5144312 61.067033,12.5144312 L61.0893773,12.8896435 C61,12.8896435 60.8659341,12.9558574 60.6871795,13.0662139 L61.0223443,13.5297114 C61.625641,12.8675722 62.2959707,12.3157895 63.010989,11.852292 C63.3684982,11.9626486 63.5695971,12.0730051 63.5695971,12.1833616 L63.8377289,12.1612903 C65.8487179,10.704584 67.8150183,9.6672326 69.7589744,9.02716469 L69.7813187,9.26994907 C69.4238095,9.79966044 69.178022,10.0645161 69.043956,10.0865874 C69.0663004,10.2631579 69.110989,10.417657 69.2003663,10.5721562 C69.2227106,10.9032258 68.3512821,13.1103565 66.5637363,17.1935484 C62.4747253,26.6621392 59.056044,33.6808149 56.285348,38.2275042 C56.285348,38.3157895 56.352381,38.4482173 56.4641026,38.6027165 C57.1567766,38.4482173 57.5813187,38.2716469 57.7600733,38.1171477 L57.8717949,38.1171477 L57.8941392,38.3599321 L58.1846154,38.3378608 L58.4304029,38.2054329 C58.4304029,38.2716469 58.5197802,38.3157895 58.6985348,38.2937182 L58.7208791,38.5585739 C58.7432234,38.8013582 58.5868132,39.1765705 58.296337,39.7062818 C58.0058608,40.0152801 57.6930403,40.6774194 57.3802198,41.6706282 L57.4025641,41.803056 L57.670696,41.7809847 C58.7879121,40.5449915 59.614652,39.3531409 60.1956044,38.1612903 C63.4355311,37.2122241 65.8934066,36.3073005 67.6139194,35.4023769 C69.3567766,35.2478778 70.6527473,34.8064516 71.5465201,34.0780985 L71.5241758,33.9456706 L70.8538462,34.1443124 L70.7197802,34.1663837 L70.6974359,34.0339559 C71.9710623,33.8573854 72.8424908,33.5704584 73.3117216,33.1952462 C75.7695971,31.3191851 77.6241758,29.9949066 78.8978022,29.2224109 C82.7857143,26.3972835 84.6179487,23.704584 84.3945055,21.1001698 C84.3721612,20.8353141 83.5230769,19.7758913 81.8249084,17.9219015 C81.8025641,17.5687606 82.3835165,17.0611205 83.5677656,16.3989813 L86.9641026,13.4855688 C87.7238095,12.5365025 88.170696,10.991511 88.3047619,8.85059423 L88.2600733,8.36502547 C88.1260073,6.88624788 87.0311355,5.69439728 84.9754579,4.76740238 C83.7465201,3.95076401 81.5567766,3.50933786 78.4062271,3.42105263 C75.8589744,3.59762309 72.440293,4.524618 68.2172161,6.15789474 L68.2172161,6.15789474 Z M86.4054945,6.3344652 L86.2714286,6.59932088 L82.5175824,5.03225806 C85.0424908,5.1426146 86.3384615,5.56196944 86.4054945,6.3344652 L86.4054945,6.3344652 Z M71.1666667,16.663837 C71.4347985,15.2733447 71.7252747,14.5008489 72.0380952,14.3242784 L74.8758242,8.05602716 C74.8534799,7.68081494 75.4344322,7.37181664 76.66337,7.15110357 L77.0655678,7.10696095 L77.0879121,7.48217317 C78.2945055,7.28353141 79.0318681,7.17317487 79.3446886,7.15110357 C81.5791209,6.9524618 82.7410256,7.41595925 82.8304029,8.475382 L83.0985348,8.4533107 L83.0538462,7.8573854 L83.321978,7.83531409 C83.9699634,8.18845501 84.3051282,8.60780985 84.3498168,9.11544992 C84.3721612,9.46859083 84.1934066,9.91001698 83.8135531,10.4397284 C83.6347985,10.4617997 83.5454212,10.3293718 83.5230769,10.0865874 L83.2549451,10.1086587 L83.1655678,10.8590832 C82.0260073,12.5585739 81.2216117,13.4193548 80.7076923,13.4634975 C80.2608059,14.0814941 79.9703297,14.3904924 79.8362637,14.3904924 C79.4787546,14.8098472 78.5179487,15.5382003 76.9315018,16.5314092 C76.3952381,16.5755518 74.4512821,17.3259762 71.0772894,18.7826825 C70.9208791,18.7164686 70.7197802,18.6943973 70.5410256,18.7164686 L70.5186813,18.4736842 C70.4739927,18.0101868 70.6974359,17.4142615 71.1666667,16.663837 L71.1666667,16.663837 Z M86.7630037,8.93887946 L86.785348,9.20373514 C86.6512821,9.20373514 86.4054945,8.80645161 86.0032967,8.01188455 L85.9809524,7.76910017 C86.2267399,7.74702886 86.4948718,8.14431239 86.7630037,8.93887946 Z M62.0054945,11.9405772 L62.0278388,12.0730051 C61.9384615,12.0730051 61.8043956,12.139219 61.625641,12.2275042 L61.5139194,12.2275042 L61.4915751,11.9847199 L62.0054945,11.9405772 Z M70.2058608,11.7419355 L70.2282051,12.1171477 C70.0941392,12.1171477 69.9377289,12.3157895 69.73663,12.6468591 L69.7142857,12.4040747 C69.9377289,12.1171477 70.0494505,11.8964346 70.0494505,11.7419355 L70.2058608,11.7419355 L70.2058608,11.7419355 Z M68.9322344,14.3463497 L68.9769231,14.8319185 L68.8428571,14.8539898 L68.7981685,14.3684211 L68.9322344,14.3463497 Z M68.6194139,15.2512733 C68.5970696,15.6706282 68.485348,15.8913413 68.2842491,15.9134126 L68.1501832,15.9354839 C68.3065934,15.6485569 68.3736264,15.4278438 68.3512821,15.2733447 L68.6194139,15.2512733 L68.6194139,15.2512733 Z M68.0384615,16.5534805 L68.0608059,16.6859083 L67.8373626,17.0831919 L67.5692308,17.1052632 L67.5468864,16.9728353 C67.8150183,16.950764 67.9490842,16.8183362 67.9267399,16.5534805 L68.0384615,16.5534805 L68.0384615,16.5534805 Z M67.4798535,17.7232598 L67.3904762,18.3633277 L67.2787546,18.3633277 L67.2340659,17.7232598 L67.4798535,17.7232598 L67.4798535,17.7232598 Z M81.243956,18.1867572 L81.8025641,18.5178268 C81.8249084,18.672326 81.7355311,18.7826825 81.5567766,18.7826825 C81.310989,18.6281834 81.1322344,18.5619694 80.9981685,18.5840407 L80.9981685,18.2088285 L81.243956,18.1867572 L81.243956,18.1867572 Z M70.4739927,19.5993209 L70.496337,19.8421053 L69.9600733,19.8862479 L69.9377289,19.6434635 L70.4739927,19.5993209 Z M79.1659341,20.5042445 C79.5457875,20.6808149 79.7245421,20.8353141 79.7468864,20.9677419 L79.7468864,21.0780985 C79.3893773,21.1001698 79.0542125,20.9235993 78.7413919,20.5263158 L79.1659341,20.5042445 Z M67.9714286,23.2190153 C69.4908425,23.0865874 71.881685,22.3803056 75.1663004,21.1001698 L75.9930403,21.0339559 C77.6465201,20.901528 78.8754579,21.2105263 79.7021978,21.9830221 L79.7468864,22.4685908 C79.1435897,24.1901528 78.4732601,25.2054329 77.7358974,25.5144312 L74.3619048,28.2071307 C71.8369963,29.8404075 70.4739927,30.6570458 70.2505495,30.6791171 C66.2285714,32.8641766 63.7260073,33.9898132 62.7428571,34.0780985 L62.6087912,34.1001698 C62.6981685,33.6366723 64.4857143,30.0169779 67.9714286,23.2190153 L67.9714286,23.2190153 Z M71.6135531,21.7843803 L71.6358974,21.9168081 L71.0996337,21.9609508 L71.0772894,21.8285229 L71.6135531,21.7843803 Z M83.7912088,21.2325976 L83.8805861,22.2478778 C83.7465201,22.4906621 83.6347985,22.62309 83.5007326,22.6451613 L83.3443223,20.9235993 C83.6347985,21.0118846 83.7912088,21.1222411 83.7912088,21.2325976 Z M63.1673993,29.8845501 C62.9886447,30.7232598 62.8098901,31.1646859 62.6311355,31.1646859 L62.6311355,31.0543294 C62.5641026,30.6570458 62.7428571,30.2597623 63.1673993,29.8845501 Z M66.5413919,34.6078098 C67.5245421,34.4312394 70.2282051,33.040747 74.652381,30.4142615 L74.6747253,30.6570458 C74.6747253,30.7674024 74.3172161,31.098472 73.5351648,31.6281834 C71.3007326,32.7317487 69.9600733,33.4601019 69.5578755,33.8353141 C67.1223443,34.6740238 65.9157509,35.2037351 65.9380952,35.4023769 C63.770696,36.2410866 62.3630037,36.8590832 61.6703297,37.2563667 C61.5139194,37.278438 61.2681319,37.2122241 60.9776557,37.057725 C60.932967,36.6162988 61.1340659,36.2852292 61.5586081,36.0203735 C61.9384615,35.9983022 62.2959707,36.0424448 62.6311355,36.1748727 C63.0333333,35.9762309 63.7260073,35.7555178 64.7315018,35.4906621 L64.7091575,35.2478778 L63.8824176,35.3140917 C63.9717949,35.1595925 64.7538462,34.8064516 66.2062271,34.2325976 L66.6084249,34.188455 L66.6084249,34.2988115 C65.9157509,34.3650255 65.5358974,34.5636672 65.4465201,34.9168081 C65.4688645,35.0713073 65.5582418,35.1595925 65.7369963,35.1375212 C66.2956044,34.8726655 66.5413919,34.6740238 66.5413919,34.6078098 L66.5413919,34.6078098 Z M62.3630037,31.5840407 L62.3630037,31.6943973 C62.385348,31.8709677 62.2959707,31.9813243 62.1172161,31.9813243 L62.0948718,31.8488964 C62.0948718,31.7385399 62.1842491,31.6281834 62.3630037,31.5840407 L62.3630037,31.5840407 Z M68.7087912,33.3056027 C68.3959707,33.327674 67.792674,33.5925297 66.8989011,34.0780985 L66.7648352,34.1001698 L66.7424908,33.8573854 C67.3904762,33.7911715 67.9714286,33.5483871 68.418315,33.106961 C68.5970696,33.0848896 68.6864469,33.1511036 68.7087912,33.3056027 L68.7087912,33.3056027 Z M62.1395604,35.1154499 L62.5417582,35.0713073 L62.5641026,35.2037351 C62.4747253,35.2037351 62.3406593,35.2699491 62.1619048,35.3582343 L61.8937729,35.3803056 C61.8714286,35.2478778 61.9608059,35.1595925 62.1395604,35.1154499 L62.1395604,35.1154499 Z M59.4358974,36.5942275 L59.7040293,36.704584 C59.614652,37.4770798 59.3688645,37.8743633 59.0113553,37.8964346 C58.6985348,37.7640068 58.4304029,37.6977929 58.1846154,37.7198642 L58.1622711,37.344652 C58.1399267,37.2122241 58.229304,37.1239389 58.4080586,37.0797963 C58.5868132,37.057725 58.6761905,37.1901528 58.6985348,37.4329372 C59.1454212,36.8811545 59.3912088,36.5942275 59.4358974,36.5942275 Z M15.6186813,5.05432937 C14.0992674,6.15789474 12.3564103,7.23938879 10.4124542,8.29881154 L10.4347985,8.62988115 C10.5688645,8.62988115 10.7252747,8.54159593 10.9487179,8.43123939 C11.1721612,8.40916808 11.3062271,8.49745331 11.3062271,8.71816638 L11.6637363,8.51952462 L11.8424908,8.49745331 L11.8648352,8.65195246 C11.8871795,8.80645161 10.6582418,9.75551783 8.22271062,11.4550085 L8.42380952,11.7640068 L8.24505495,11.7860781 L7.86520147,11.6536503 C7.86520147,11.7640068 7.70879121,11.8302207 7.35128205,11.852292 L7.37362637,12.0288625 L7.77582418,12.4702886 C7.64175824,12.4702886 7.46300366,12.4482173 7.23956044,12.3599321 C6.45750916,12.426146 5.67545788,13 4.91575092,14.0594228 L5.11684982,14.3684211 C5.78717949,13.7724958 6.16703297,13.4634975 6.27875458,13.4634975 L6.32344322,13.9490662 C6.21172161,13.9490662 6.03296703,14.0373514 5.80952381,14.147708 L6.23406593,14.7657046 C7.03846154,13.9049236 7.90989011,13.1765705 8.89304029,12.5806452 C9.38461538,12.713073 9.63040293,12.8455008 9.63040293,13.0220713 L9.98791209,13 C12.6021978,11.0797963 15.1941392,9.71137521 17.7637363,8.85059423 L17.7860806,9.18166384 C17.3168498,9.88794567 16.981685,10.2410866 16.8029304,10.2631579 C16.8252747,10.5059423 16.914652,10.704584 17.0487179,10.9032258 C17.0934066,11.344652 15.9315018,14.2359932 13.5630037,19.6213922 C8.15567766,32.1137521 3.64212454,41.3395586 0,47.3429542 C0,47.4533107 0.0893772894,47.6298812 0.201098901,47.8285229 C1.09487179,47.6078098 1.67582418,47.4091681 1.92161172,47.188455 L2.12271062,47.1663837 L2.14505495,47.4974533 L2.48021978,47.475382 L2.83772894,47.2767402 C2.83772894,47.3870968 2.97179487,47.4312394 3.1952381,47.4091681 L3.21758242,47.7402377 C3.23992674,48.0713073 3.06117216,48.5789474 2.63663004,49.2631579 C2.25677656,49.6825127 1.87692308,50.5432937 1.45238095,51.8455008 L1.47472527,52 L1.80989011,51.9779287 C3.26227106,50.3667233 4.37948718,48.7775891 5.13919414,47.2325976 C9.40695971,45.9966044 12.6468864,44.7826825 14.903663,43.5908319 C17.1604396,43.3921902 18.9032967,42.8183362 20.0652015,41.8471986 L20.0428571,41.6706282 L19.1937729,41.9134126 L18.992674,41.9354839 L18.9703297,41.7589134 C20.6238095,41.516129 21.7857143,41.1409168 22.4113553,40.655348 C25.6512821,38.1833616 28.0868132,36.4397284 29.740293,35.4023769 C34.8571429,31.6943973 37.2703297,28.1188455 36.9798535,24.7198642 C36.9575092,24.3667233 35.8179487,22.9762309 33.6058608,20.5483871 C33.5611722,20.0848896 34.3432234,19.4227504 35.907326,18.5398981 L40.3538462,14.6774194 C41.3369963,13.4193548 41.940293,11.3887946 42.1413919,8.58573854 L42.074359,7.92359932 C41.8956044,5.95925297 40.4655678,4.37011885 37.7395604,3.15619694 C36.1307692,2.07470289 33.2483516,1.5008489 29.0923077,1.43463497 C25.6736264,1.74363328 21.1600733,2.93548387 15.6186813,5.05432937 L15.6186813,5.05432937 Z M39.5717949,5.34125637 L39.4377289,5.67232598 L34.4772894,3.6196944 C37.7842491,3.75212224 39.4824176,4.32597623 39.5717949,5.34125637 L39.5717949,5.34125637 Z M19.5065934,18.9371817 C19.8417582,17.1273345 20.2216117,16.089983 20.6461538,15.8471986 L24.3553114,7.61460102 C24.3106227,7.10696095 25.092674,6.70967742 26.7238095,6.44482173 L27.2600733,6.40067912 L27.3047619,6.86417657 C28.9135531,6.62139219 29.8967033,6.48896435 30.2765568,6.44482173 C33.2260073,6.20203735 34.7454212,6.77589134 34.8794872,8.21052632 L35.214652,8.18845501 L35.147619,7.34974533 L35.5051282,7.32767402 C36.3765568,7.79117148 36.8457875,8.36502547 36.8904762,9.04923599 C36.9351648,9.51273345 36.6893773,10.0865874 36.1307692,10.770798 C35.907326,10.7928693 35.7732601,10.6383701 35.7509158,10.3073005 L35.3934066,10.3293718 L35.3040293,11.3225806 C33.8069597,13.5297114 32.7344322,14.655348 32.0641026,14.721562 C31.4608059,15.5382003 31.0809524,15.9575552 30.9245421,15.9796265 C30.4553114,16.5314092 29.181685,17.4804754 27.0813187,18.8047538 C26.3886447,18.8709677 23.8190476,19.8421053 19.3725275,21.762309 C19.1490842,21.6519525 18.925641,21.6298812 18.6575092,21.6519525 L18.6351648,21.3429542 C18.5904762,20.7028862 18.8586081,19.9083192 19.5065934,18.9371817 L19.5065934,18.9371817 Z M40.0410256,8.78438031 L40.06337,9.09337861 C39.8846154,9.11544992 39.5494505,8.58573854 39.0578755,7.52631579 L39.0355311,7.21731749 C39.3483516,7.17317487 39.6835165,7.70288625 40.0410256,8.78438031 Z M7.41831502,12.713073 L7.44065934,12.8675722 C7.32893773,12.8675722 7.15018315,12.9558574 6.92673993,13.0662139 L6.74798535,13.0882852 L6.72564103,12.7792869 L7.41831502,12.713073 Z M18.2106227,12.4482173 L18.2553114,12.9337861 C18.0989011,12.9558574 17.8754579,13.1765705 17.607326,13.6400679 L17.5849817,13.3089983 C17.8978022,12.9337861 18.0542125,12.6468591 18.0542125,12.4482173 L18.2106227,12.4482173 Z M16.5571429,15.8913413 L16.6241758,16.5534805 L16.4454212,16.5755518 L16.3783883,15.9134126 L16.5571429,15.8913413 Z M16.1326007,17.0831919 C16.0879121,17.6349745 15.9538462,17.9219015 15.66337,17.9439728 L15.4846154,17.9660441 C15.6857143,17.5908319 15.7974359,17.3259762 15.7750916,17.1273345 L16.1326007,17.0831919 Z M15.3952381,18.8047538 L15.4175824,18.959253 L15.1047619,19.4889643 L14.7695971,19.5110357 L14.7472527,19.3565365 C15.0824176,19.3344652 15.2388278,19.1578947 15.2164835,18.8268251 L15.3952381,18.8047538 L15.3952381,18.8047538 Z M14.6355311,20.3497453 L14.5461538,21.1663837 L14.3673993,21.188455 L14.3003663,20.3718166 L14.6355311,20.3497453 Z M32.7567766,20.9456706 L33.4941392,21.3870968 C33.5164835,21.6078098 33.4047619,21.7402377 33.1813187,21.762309 C32.8684982,21.5636672 32.6227106,21.475382 32.443956,21.475382 L32.3992674,20.9898132 L32.7567766,20.9456706 Z M18.5681319,22.8217317 L18.5904762,23.1307301 L17.8978022,23.196944 L17.8754579,22.8879457 L18.5681319,22.8217317 Z M30.0084249,23.9694397 C30.5,24.1901528 30.7457875,24.4108659 30.7681319,24.5874363 L30.7904762,24.7419355 C30.3212454,24.7860781 29.8967033,24.5432937 29.4945055,24.0135823 L30.0084249,23.9694397 Z M15.2611722,27.5449915 C17.2721612,27.3684211 20.4450549,26.4414261 24.7575092,24.7640068 L25.8076923,24.6757216 C27.9974359,24.4991511 29.6285714,24.8964346 30.7010989,25.9117148 L30.7681319,26.573854 C29.9637363,28.8692699 29.0699634,30.1935484 28.1091575,30.6129032 L23.640293,34.1222411 C20.310989,36.2852292 18.5234432,37.3667233 18.2553114,37.3887946 C12.959707,40.2801358 9.65274725,41.7589134 8.37912088,41.8692699 L8.17802198,41.8913413 C8.35677656,41.2733447 10.7029304,36.5059423 15.2611722,27.5449915 L15.2611722,27.5449915 Z M20.0875458,25.6689304 L20.1098901,25.8234295 L19.3948718,25.8896435 L19.3725275,25.7351443 L20.0875458,25.6689304 Z M36.1307692,24.9626486 L36.2424908,26.2648557 C36.0860806,26.6179966 35.9296703,26.7945671 35.7509158,26.7945671 L35.5498168,24.4991511 C35.9296703,24.6536503 36.1084249,24.8081494 36.1307692,24.9626486 Z M8.93772894,36.3514431 C8.71428571,37.4770798 8.46849817,38.0509338 8.22271062,38.0730051 L8.2003663,37.9185059 C8.15567766,37.344652 8.4014652,36.8370119 8.93772894,36.3514431 L8.93772894,36.3514431 Z M13.4065934,42.5755518 C14.7025641,42.3327674 18.2553114,40.4787776 24.0871795,37.057725 L24.1095238,37.3667233 C24.1318681,37.4991511 23.6179487,37.9185059 22.6124542,38.6468591 C19.6406593,40.0814941 17.8978022,41.0747029 17.3838828,41.582343 C14.1663004,42.6859083 12.5798535,43.3701188 12.6021978,43.6349745 C9.74212454,44.7606112 7.86520147,45.5772496 6.97142857,46.0848896 C6.77032967,46.106961 6.45750916,46.0186757 6.05531136,45.8421053 C6.01062271,45.2682513 6.25641026,44.8047538 6.83736264,44.4295416 C7.32893773,44.385399 7.82051282,44.4516129 8.26739927,44.6502547 C8.803663,44.385399 9.71978022,44.0764007 11.0380952,43.7674024 L11.0157509,43.4363328 L9.96556777,43.524618 C10.0996337,43.3480475 11.1051282,42.8845501 13.0267399,42.1120543 L13.5630037,42.0679117 L13.585348,42.2224109 C12.6915751,42.2886248 12.1776557,42.5755518 12.0659341,43.0390492 C12.0882784,43.237691 12.2,43.3480475 12.4234432,43.3259762 C13.0714286,42.8845501 13.4065934,42.6417657 13.4065934,42.5755518 L13.4065934,42.5755518 Z M7.90989011,38.5806452 L7.93223443,38.7351443 C7.95457875,38.9558574 7.84285714,39.0882852 7.61941392,39.1103565 L7.5970696,38.9558574 C7.57472527,38.7572156 7.68644689,38.6247878 7.90989011,38.5806452 Z M16.2666667,40.8319185 C15.8421245,40.8760611 15.0600733,41.2071307 13.8758242,41.8692699 L13.6970696,41.8913413 L13.6747253,41.5602716 C14.5238095,41.4940577 15.2611722,41.1629881 15.8644689,40.5670628 C16.1102564,40.5229202 16.2443223,40.6332767 16.2666667,40.8319185 Z M7.5970696,43.2156197 L8.13333333,43.1714771 L8.15567766,43.3480475 C8.02161172,43.3480475 7.86520147,43.4363328 7.64175824,43.5466893 L7.30659341,43.5687606 C7.28424908,43.4142615 7.37362637,43.2818336 7.5970696,43.2156197 Z M4.04432234,45.179966 L4.42417582,45.3344652 C4.29010989,46.327674 3.9996337,46.8353141 3.48571429,46.8794567 C3.08351648,46.7028862 2.72600733,46.6366723 2.39084249,46.6587436 L2.34615385,46.1731749 C2.32380952,45.9745331 2.43553114,45.8641766 2.68131868,45.7979626 C2.9047619,45.7758913 3.03882784,45.9303905 3.06117216,46.2614601 C3.66446886,45.533107 3.9996337,45.179966 4.04432234,45.179966 L4.04432234,45.179966 Z M103.163736,1.8098472 L102.87326,1.69949066 L98.1139194,2.4278438 C97.9351648,2.33955857 97.7117216,2.29541596 97.4659341,2.31748727 C97.1978022,2.33955857 96.7956044,2.4278438 96.1923077,2.58234295 L93.8908425,3.53140917 L94.0695971,3.81833616 C94.1813187,3.81833616 94.3377289,3.75212224 94.5388278,3.6417657 L95.3432234,3.70797963 L95.2315018,4.45840407 C94.4941392,4.78947368 94.0472527,5.27504244 93.9355311,5.91511036 C92.818315,6.40067912 92.259707,6.75382003 92.259707,6.97453311 L92.2820513,7.10696095 L92.4608059,7.08488964 L92.7736264,6.93039049 L93.1311355,7.34974533 L93.1758242,7.92359932 C93.1981685,8.10016978 91.2989011,12.0509338 87.5003663,19.75382 C84.2157509,27.1697793 82.4952381,31.2308998 82.3164835,31.959253 C81.1992674,32.2682513 80.5289377,32.7317487 80.3501832,33.327674 C80.3725275,33.5263158 80.7076923,33.6366723 81.3556777,33.7028862 L81.378022,33.9898132 L81.0875458,34.475382 L81.1322344,35.049236 C81.1545788,35.3582343 81.9813187,35.5789474 83.5901099,35.7555178 C83.5901099,35.6451613 83.6347985,35.6010187 83.7465201,35.5789474 C83.7688645,35.9320883 83.6794872,36.6383701 83.4336996,37.6977929 L83.6124542,37.6757216 C84.2827839,36.770798 84.5956044,36.1528014 84.5732601,35.7996604 L84.707326,35.7775891 C84.8637363,35.7555178 85.0424908,35.9541596 85.2435897,36.3514431 C85.0424908,36.4397284 84.3274725,38.0288625 83.1208791,41.1409168 L83.2996337,41.4278438 L83.4783883,41.4057725 C84.9754579,37.6757216 85.9139194,35.6010187 86.2937729,35.2037351 C88.2600733,35.0271647 91.6340659,34.6960951 96.4604396,34.188455 L96.7509158,34.0118846 C96.7509158,34.1222411 96.8179487,34.1663837 96.9296703,34.1443124 L97.2424908,34.1222411 L97.532967,33.9456706 C97.532967,34.0560272 97.6,34.1001698 97.7117216,34.0780985 L101.353846,33.7691002 C102.314652,33.6808149 102.783883,33.3938879 102.739194,32.9083192 C102.71685,32.7758913 103.297802,32.6213922 104.459707,32.466893 C104.571429,32.466893 104.727839,32.4889643 104.951282,32.5551783 C104.951282,32.466893 105.50989,32.3786078 106.671795,32.2682513 C106.694139,31.672326 106.895238,31.3412564 107.252747,31.3191851 L107.230403,31.0322581 C106.917582,31.0543294 106.537729,31.1426146 106.113187,31.2750424 C105.35348,31.2308998 104.861905,31.1867572 104.660806,31.098472 C104.459707,31.2088285 104.303297,31.2750424 104.191575,31.2750424 L101.644322,31.3633277 L101.331502,31.5178268 C101.331502,31.4295416 101.264469,31.385399 101.152747,31.4074703 L101.018681,31.4295416 L100.683516,31.5840407 C100.683516,31.4957555 100.415385,31.4295416 99.8791209,31.3633277 L99.5663004,31.5398981 L98.9406593,31.5840407 L98.918315,31.4295416 C102.180586,31.0764007 103.811722,30.6349745 103.767033,30.1052632 C103.968132,30.0831919 104.079853,30.1935484 104.102198,30.3921902 L105.063004,30.1494058 L105.040659,29.8624788 L97.2201465,30.0831919 C97.2201465,30.1935484 97.1754579,30.237691 97.0637363,30.2597623 L96.1029304,30.1714771 C95.8571429,30.1935484 95.656044,30.2597623 95.4996337,30.3921902 L95.1421245,30.2597623 C94.1589744,30.3480475 93.4216117,30.4584041 92.9300366,30.6129032 C92.259707,30.5687606 91.5223443,30.5687606 90.6956044,30.6349745 L88.9304029,30.7894737 L88.1260073,30.7011885 C88.0813187,30.1935484 89.0868132,27.6774194 91.1648352,23.1528014 C91.7681319,21.6298812 92.3267399,20.6808149 92.8406593,20.327674 C92.952381,20.327674 93.1087912,20.3497453 93.3322344,20.4380306 L94.5835165,20.0186757 L95.2315018,20.1290323 C96.3040293,20.040747 97.5553114,19.7317487 98.985348,19.2241087 C99.3428571,19.2020374 99.610989,19.2241087 99.7897436,19.2903226 L100.750549,19.0696095 L103.588278,18.8268251 C104.794872,18.7164686 106.113187,18.4516129 107.520879,18.0322581 L107.498535,17.7453311 C106.962271,17.7894737 106.694139,17.7011885 106.671795,17.5025467 C106.627106,17.1052632 106.247253,16.950764 105.50989,17.0169779 L105.487546,16.7300509 L106.269597,16.5093379 L108.325275,16.3327674 L108.30293,16.0458404 C108.213553,16.0458404 107.811355,16.0458404 107.029304,16.0237691 L107.00696,15.7147708 L107.811355,15.6485569 C108.012454,15.6264856 108.124176,15.516129 108.101832,15.3395586 C107.029304,15.3616299 106.49304,15.3174873 106.49304,15.1850594 C99.052381,15.5382003 95.3432234,15.6044143 95.3208791,15.3837012 C95.2091575,15.3837012 95.0527473,15.4499151 94.8516484,15.582343 L94.6505495,15.2733447 C96.6168498,11.1460102 97.7787546,9.04923599 98.1139194,9.02716469 C98.1362637,9.18166384 98.0468864,9.44651952 97.8681319,9.79966044 L97.8904762,9.93208829 L98.2032967,9.91001698 C98.985348,8.05602716 99.6333333,7.10696095 100.191941,7.06281834 C102.515751,6.86417657 99.8567766,6.70967742 104.861905,5.93718166 C105.063004,6.02546689 105.219414,6.06960951 105.308791,6.0475382 C107.275092,5.65025467 110.001099,5.25297114 113.509158,4.8336163 L113.486813,4.5466893 L111.60989,4.72325976 L111.587546,4.43633277 C111.810989,4.41426146 111.989744,4.34804754 112.146154,4.21561969 L112.168498,4.37011885 C112.28022,4.37011885 112.414286,4.30390492 112.59304,4.17147708 C112.905861,4.14940577 113.151648,4.17147708 113.330403,4.25976231 C113.978388,4.08319185 114.492308,3.99490662 114.894505,3.95076401 L116.05641,3.84040747 C116.346886,3.66383701 116.480952,3.50933786 116.458608,3.35483871 L116.458608,3.22241087 C116.168132,3.24448217 115.832967,3.22241087 115.430769,3.15619694 C115.408425,3.00169779 115.497802,2.89134126 115.698901,2.84719864 L117.8663,2.64855688 L118.871795,2.4057725 C118.871795,2.51612903 118.938828,2.56027165 119.005861,2.56027165 C119.117582,2.56027165 119.251648,2.49405772 119.430403,2.36162988 C119.944322,2.4278438 120.257143,2.44991511 120.324176,2.4278438 C120.726374,2.05263158 121.195604,1.74363328 121.709524,1.54499151 C121.486081,1.32427844 121.374359,1.14770798 121.352015,0.993208829 L119.899634,1.12563667 C119.899634,1.01528014 119.832601,0.882852292 119.743223,0.684210526 C119.743223,0.551782683 120.056044,0.419354839 120.726374,0.286926995 L121.01685,0.397283531 L121.284982,0.24278438 C121.284982,0.33106961 121.352015,0.375212224 121.441392,0.353140917 L121.709524,0.198641766 C121.709524,0.286926995 121.776557,0.33106961 121.865934,0.308998302 L122,0.286926995 L121.977656,0 C121.776557,0.0220713073 121.240293,0.0220713073 120.391209,0 L120.123077,0.176570458 L120.100733,0.0220713073 C113.285714,0.57385399 109.420147,0.882852292 108.504029,0.971137521 C108.392308,0.971137521 107.900733,0.971137521 107.073993,0.949066214 C107.073993,1.05942275 106.984615,1.12563667 106.783516,1.12563667 L106.49304,0.993208829 L105.487546,1.23599321 C105.264103,1.25806452 104.861905,1.23599321 104.303297,1.19185059 C104.146886,1.30220713 103.968132,1.39049236 103.744689,1.41256367 C103.521245,1.43463497 109.152015,1.10356537 108.97326,1.01528014 L108.101832,1.25806452 L107.967766,1.28013582 C107.610256,1.30220713 107.16337,1.30220713 106.627106,1.23599321 C106.470696,1.34634975 106.247253,1.43463497 105.912088,1.45670628 C105.688645,1.47877759 105.487546,1.43463497 105.331136,1.34634975 C105.085348,1.41256367 104.37033,1.58913413 103.163736,1.8098472 L103.163736,1.8098472 Z M103.521245,2.69269949 C103.521245,2.80305603 103.632967,2.84719864 103.811722,2.82512733 L103.834066,3.11205433 L103.54359,3.13412564 C103.320147,3.15619694 103.119048,3.11205433 102.962637,3.0237691 C102.806227,3.15619694 102.605128,3.22241087 102.404029,3.24448217 L102.493407,3.24448217 L101.689011,3.15619694 L101.666667,3.0237691 C102.649817,2.95755518 102.962637,2.84719864 103.521245,2.69269949 L103.521245,2.69269949 Z M104.258608,2.62648557 L104.415018,2.60441426 L104.437363,2.89134126 L103.990476,2.93548387 C103.990476,2.78098472 104.057509,2.67062818 104.258608,2.62648557 Z M105.979121,2.44991511 L106.001465,2.60441426 C105.6663,2.62648557 105.241758,2.7147708 104.727839,2.86926995 L104.571429,2.89134126 L104.705495,2.58234295 L105.979121,2.44991511 L105.979121,2.44991511 Z M93.2875458,3.88455008 L93.7791209,3.84040747 L93.7567766,3.55348048 L93.2652015,3.59762309 L93.2875458,3.88455008 Z M96.7956044,3.57555178 L96.974359,3.55348048 L97.3095238,3.68590832 C97.3318681,3.88455008 97.2201465,3.99490662 97.0190476,3.99490662 L96.5274725,4.03904924 L96.5051282,3.88455008 C96.4827839,3.73005093 96.5945055,3.6417657 96.7956044,3.57555178 Z M108.034799,4.21561969 L108.034799,4.34804754 L107.029304,4.43633277 L107.029304,4.30390492 L108.034799,4.21561969 Z M105.152381,4.63497453 L105.174725,4.78947368 L104.593773,4.8336163 L104.571429,4.67911715 L105.152381,4.63497453 Z M107.923077,4.85568761 L109.934066,4.524618 L110.961905,4.56876061 L110.984249,4.72325976 C110.492674,4.76740238 110.068132,4.85568761 109.710623,4.98811545 C109.710623,4.87775891 109.509524,4.78947368 109.107326,4.74533107 L107.520879,5.18675722 C107.208059,5.01018676 107.051648,4.87775891 107.051648,4.78947368 L107.923077,4.85568761 L107.923077,4.85568761 Z M105.934432,5.29711375 C106.135531,5.27504244 106.224908,5.36332767 106.247253,5.56196944 L105.398168,5.65025467 L105.375824,5.36332767 L105.934432,5.29711375 L105.934432,5.29711375 Z M104.169231,5.20882852 L104.191575,5.36332767 L109.420147,5.12054329 L109.397802,4.96604414 L104.169231,5.20882852 Z M104.482051,5.60611205 L104.482051,5.7385399 L103.342491,5.84889643 L103.342491,5.71646859 L104.482051,5.60611205 Z M96.9967033,11.4550085 L97.0190476,11.6095076 L97.3542125,11.5874363 C97.3542125,11.4770798 97.3765568,11.3225806 97.4659341,11.1239389 L97.4435897,10.8370119 C97.2648352,10.8590832 97.1084249,11.057725 96.9967033,11.4550085 L96.9967033,11.4550085 Z M85.4893773,27.9643463 L85.5117216,28.0967742 C85.5340659,28.295416 85.4223443,28.4057725 85.1989011,28.4278438 L85.1765568,28.295416 C85.1542125,28.1188455 85.2659341,28.0305603 85.4893773,27.9643463 Z M85.1989011,28.582343 C85.2212454,28.8692699 85.0201465,29.5755518 84.6179487,30.7232598 L84.1263736,30.7674024 C84.1040293,30.5687606 84.3721612,29.8624788 84.8860806,28.6264856 L85.1989011,28.582343 L85.1989011,28.582343 Z M90.5838828,33.1952462 C90.6062271,33.3497453 90.3380952,33.5263158 89.8241758,33.7028862 L88.8410256,33.6366723 L88.5282051,33.6587436 L88.5058608,33.3718166 L90.5838828,33.1952462 L90.5838828,33.1952462 Z M91.5446886,33.2835314 L91.567033,33.4159593 L90.7626374,33.4821732 L90.740293,33.3497453 L91.5446886,33.2835314 Z" id="Shape"></path>
                        </g>
                    </g>
                </g>
            </g>
        </g>
    </g>
</svg>