<?xml version="1.0" encoding="UTF-8"?>
<svg width="146px" height="30px" viewBox="0 0 146 30" version="1.1" xmlns="http://www.w3.org/2000/svg" xmlns:xlink="http://www.w3.org/1999/xlink">
    <!-- Generator: Sketch 41.2 (35397) - http://www.bohemiancoding.com/sketch -->
    <title>black/icon/centos</title>
    <desc>Created with Sketch.</desc>
    <defs></defs>
    <g id="Page-2" stroke="none" stroke-width="1" fill="none" fill-rule="evenodd">
        <g id="Desktop-Landscape" transform="translate(-367.000000, -1457.000000)">
            <g id="Black" transform="translate(70.000000, 1100.000000)">
                <g id="black/icon/centos" transform="translate(287.000000, 317.000000)">
                    <rect id="Rectangle" x="0" y="0" width="165" height="110"></rect>
                    <g id="Group" transform="translate(10.000000, 40.000000)" fill="#000000">
                        <path d="M23.3404178,29.5028006 L11.1163704,29.5028006 C9.87681809,29.5028006 8.65045404,29.3232529 7.43729953,28.964093 C5.09006312,28.2182742 3.23073824,26.5055519 1.85932843,23.8259729 C0.619772594,21.395049 0,18.5635466 0,15.3314943 C0,12.2099861 0.553838508,9.44754826 1.66152973,7.04421298 C2.87469489,4.39230847 4.60215515,2.58292241 6.84388921,1.61604766 C8.58451995,0.870218103 10.364719,0.497296158 12.1845004,0.497263903 L23.261299,0.497263903 L23.261299,6.04973893 L11.7493383,6.04973893 C9.87681809,6.0497676 8.51858942,7.11329902 7.67464875,9.24035109 C7.01530789,10.8978281 6.68564811,13.0663204 6.68564811,15.7458672 C6.68564811,18.0110698 7.1076149,19.930957 7.95157333,21.5055322 C8.92737152,23.356362 10.2987955,24.2817823 12.0658063,24.2817679 L23.3404178,24.2403063 L23.3404178,29.5027755 M43.6989978,29.6270673 L34.0463478,29.6270673 C31.6991149,29.6270673 29.6551831,28.5773481 27.9145488,26.4779132 C26.2002874,24.3508074 25.3431479,21.9060642 25.3431479,19.1436299 C25.3431479,16.1325906 26.2793991,13.5359097 28.1519122,11.3535802 C30.050777,9.14364784 32.1606393,8.03868703 34.4814992,8.0386727 L43.6594508,8.0386727 L43.6594508,12.4723604 L36.9342344,12.4723604 C36.0902796,12.4723819 35.3650224,12.555212 34.7584345,12.7209834 C34.1781982,12.859116 33.6375586,13.1491756 33.1364659,13.5911406 C32.2133887,14.4198934 31.7518643,15.5386772 31.7518714,16.9474918 L43.6198826,16.9474918 L43.6198826,21.4226304 L31.7914397,21.4226304 C31.791429,22.0856227 31.8573596,22.6519189 31.9892206,23.1215225 C32.1474688,23.5635162 32.4507557,24.0193148 32.899106,24.4889329 C33.3474528,24.9309193 33.8749149,25.2347983 34.4814992,25.4005159 C35.1144601,25.5386593 35.8792891,25.6077596 36.7760075,25.6077596 L43.6989978,25.6077596 L43.6989978,29.6270673 M66.2581066,29.5027755 L60.7592614,29.5027755 L60.7592614,15.3729094 C60.7592436,15.0137996 60.680139,14.6961265 60.5219157,14.4198755 C60.3636533,14.1160253 60.1394817,13.8259693 59.8493759,13.549704 C59.3219033,13.0801146 58.7153224,12.8453074 58.02963,12.8452967 L52.6494611,12.8452967 L52.6494611,29.5027755 L47.1506159,29.5027755 L47.1506159,8.0386727 L57.6735795,8.0386727 C59.5460784,8.03868703 60.9043071,8.14917738 61.7482584,8.37015091 C63.0669117,8.70167212 64.1218536,9.43370382 64.9130732,10.5662854 C65.809742,11.8922664 66.2580888,13.3425462 66.2581066,14.9171107 L66.2581066,29.5027755 M82.051227,12.5138005 L76.7106157,12.5138005 L76.7106157,22.2513582 C76.7106122,23.1353455 77.0007072,23.8673843 77.5809329,24.4474963 C78.240256,25.0276118 79.1105731,25.3176571 80.1919021,25.3176571 L81.81386,25.3176571 L81.81386,29.5027755 L76.7106157,29.5027755 C75.1809542,29.5027755 73.8754714,28.9226313 72.7941708,27.762454 C72.1612064,27.0718374 71.7524279,26.3121275 71.5678068,25.4833926 C71.3831892,24.6546827 71.2908893,23.6740173 71.2909035,22.5414249 L71.2909035,12.5138005 L67.8096136,12.5138005 L67.8096136,8.0386727 L71.2909035,8.0386727 L71.2909035,0.497245984 L76.7106157,0.497245984 L76.7106157,8.0386727 L82.051227,8.0386727 L82.051227,12.5138005 M114.334072,14.9585437 C114.334033,20.5939134 112.843929,24.6270583 109.863771,27.0580108 C107.437398,29.0193202 103.903373,30 99.2616816,30 C94.1188691,30 90.3211077,28.8674256 87.8683902,26.6022086 C85.1783129,24.1160073 83.8332796,20.1243025 83.8332796,14.6270583 C83.8332796,10.1243133 85.0332565,6.6160387 87.4332423,4.1022059 C90.0441866,1.36742825 93.9474362,2.1503149e-05 99.1430017,-3.55271368e-15 C104.866011,2.1503149e-05 108.901115,1.31218666 111.248376,3.93645604 C113.305475,6.25691461 114.334033,9.93094622 114.334072,14.9585437 M107.292363,14.7927974 C107.292342,11.9475223 106.646193,9.68232681 105.35393,7.99723254 C103.903373,6.1187963 101.753946,5.17957459 98.9056347,5.17954233 C96.1100551,5.17957459 94.0001927,6.18785724 92.5760442,8.20440105 C91.3892235,9.88950965 90.7958345,12.085637 90.7958416,14.7927974 C90.7958345,17.9143594 91.2705613,20.220995 92.2200044,21.71269 C93.5386506,23.7845112 95.978194,24.8204218 99.5386062,24.8204111 C102.545144,24.8204218 104.65501,23.8121428 105.868207,21.7955631 C106.817626,20.220995 107.292342,17.886735 107.292363,14.7927974 M146,20.5110259 C145.999968,23.0524688 145.195585,25.1933509 143.586854,26.9337119 C141.978031,28.674037 139.934114,29.5442049 137.455038,29.5442049 L117.872824,29.5027433 L117.872824,24.2817106 L134.01332,24.2817106 C135.094606,24.2817214 136.004484,24.0192862 136.742958,23.494423 C137.586888,22.8866974 138.008858,22.057966 138.008876,21.0082432 C138.008858,18.5496843 136.347343,17.3204066 133.024315,17.3203994 L124.874936,17.3203994 C122.527707,17.3204066 120.47059,16.5607398 118.703583,15.0413882 C116.936572,13.5220689 116.05306,11.5883731 116.05306,9.24029016 C116.05306,6.64362724 116.910192,4.54418879 118.624461,2.94196049 C120.365095,1.3121544 122.64639,0.497238816 125.468336,0.497210146 L144.180247,0.497210146 L144.180247,5.46956964 L127.683711,5.46956964 C126.945252,5.46959473 126.193597,5.80109085 125.428785,6.46405802 C124.690326,7.0994259 124.321094,7.85909632 124.321101,8.74305851 C124.321094,9.7375469 124.67713,10.5800904 125.389228,11.270682 C126.127673,11.9336778 127.011189,12.2651704 128.039748,12.265156 L137.019872,12.265156 C139.815427,12.2651704 142.004401,13.0248336 143.586854,14.5441601 C145.195585,16.0358837 145.999968,18.0248247 146,20.511008" id="text"></path>
                    </g>
                </g>
            </g>
        </g>
    </g>
</svg>