<?xml version="1.0" encoding="UTF-8"?>
<svg width="99px" height="32px" viewBox="0 0 99 32" version="1.1" xmlns="http://www.w3.org/2000/svg" xmlns:xlink="http://www.w3.org/1999/xlink">
    <!-- Generator: Sketch 41.2 (35397) - http://www.bohemiancoding.com/sketch -->
    <title>black/icon/css</title>
    <desc>Created with Sketch.</desc>
    <defs></defs>
    <g id="Page-2" stroke="none" stroke-width="1" fill="none" fill-rule="evenodd">
        <g id="Desktop-Landscape" transform="translate(-677.000000, -1276.000000)">
            <g id="Black" transform="translate(70.000000, 1100.000000)">
                <g id="black/icon/css" transform="translate(574.000000, 137.000000)">
                    <rect id="Rectangle" x="0" y="0" width="165" height="110"></rect>
                    <g id="Group" transform="translate(33.000000, 39.000000)" fill="#010000">
                        <polyline id="Fill-4" points="0 0 0 32 26 32 26 21.6470832 11.1429737 21.6470832 11.1429737 10.8384295 26 10.8384295 26 0 0 0"></polyline>
                        <polyline id="Fill-5" points="37 0 37 8.65899868 46.1364925 21.6470832 37.7047387 21.6470832 37.7047387 32 63 32 63 22.1325958 54.5682462 11.2941663 63 11.2941663 63 0 37 0"></polyline>
                        <polyline id="Fill-6" points="73 0 73 8.65899868 82.1369041 21.6470832 73.705562 21.6470832 73.705562 32 99 32 99 22.1325958 90.5686579 11.2941663 99 11.2941663 99 0 73 0"></polyline>
                    </g>
                </g>
            </g>
        </g>
    </g>
</svg>