<?xml version="1.0" encoding="UTF-8"?>
<svg width="80px" height="58px" viewBox="0 0 80 58" version="1.1" xmlns="http://www.w3.org/2000/svg" xmlns:xlink="http://www.w3.org/1999/xlink">
    <!-- Generator: Sketch 41.2 (35397) - http://www.bohemiancoding.com/sketch -->
    <title>black/icon/docker</title>
    <desc>Created with Sketch.</desc>
    <defs></defs>
    <g id="Page-2" stroke="none" stroke-width="1" fill="none" fill-rule="evenodd">
        <g id="Desktop-Landscape" transform="translate(-127.000000, -1443.000000)">
            <g id="Black" transform="translate(70.000000, 1100.000000)">
                <g id="black/icon/docker" transform="translate(14.000000, 317.000000)">
                    <rect id="Rectangle" x="0" y="0" width="165" height="110"></rect>
                    <g id="Group" transform="translate(43.000000, 26.000000)" fill="#000000">
                        <path d="M16.057941,46.7338129 C13.7816865,46.7338129 11.7123642,44.8561151 11.7123642,42.5611511 C11.7123642,40.2661871 13.5747543,38.3884892 16.057941,38.3884892 C18.5411278,38.3884892 20.4035178,40.2661871 20.4035178,42.5611511 C20.4035178,44.8561151 18.3341956,46.7338129 16.057941,46.7338129 L16.057941,46.7338129 Z M69.4464563,23.9928058 C69.0325918,20.6546763 66.9632695,17.942446 64.2731505,15.8561151 L63.2384894,15.0215827 L62.4107605,16.0647482 C60.7553026,17.942446 60.1345059,21.2805755 60.3414382,23.7841727 C60.5483704,25.6618705 61.1691671,27.5395683 62.2038282,29 C61.3760993,29.4172662 60.3414382,29.8345324 59.5137093,30.2517986 C57.6513192,30.8776978 55.7889291,31.0863309 53.9265391,31.0863309 L0.331091568,31.0863309 L0.124159338,32.3381295 C-0.289705122,36.3021583 0.331091568,40.4748201 1.98654941,44.2302158 L2.81427832,45.6906475 L2.81427832,45.8992806 C7.78065184,54.2446043 16.6787377,58 26.4045525,58 C45.0284532,58 60.3414382,49.8633094 67.5840662,32.3381295 C72.3435075,32.5467626 77.1029488,31.294964 79.3792033,26.705036 L80,25.6618705 L78.9653389,25.0359712 C76.2752199,23.3669065 72.5504397,23.1582734 69.4464563,23.9928058 L69.4464563,23.9928058 Z M42.7521987,20.6546763 L34.6818417,20.6546763 L34.6818417,28.7913669 L42.7521987,28.7913669 L42.7521987,20.6546763 Z M42.7521987,10.4316547 L34.6818417,10.4316547 L34.6818417,18.5683453 L42.7521987,18.5683453 L42.7521987,10.4316547 Z M42.7521987,0 L34.6818417,0 L34.6818417,8.13669065 L42.7521987,8.13669065 L42.7521987,0 Z M52.6849457,20.6546763 L44.6145887,20.6546763 L44.6145887,28.7913669 L52.6849457,28.7913669 L52.6849457,20.6546763 Z M22.6797724,20.6546763 L14.6094154,20.6546763 L14.6094154,28.7913669 L22.6797724,28.7913669 L22.6797724,20.6546763 Z M32.8194516,20.6546763 L24.7490947,20.6546763 L24.7490947,28.7913669 L32.8194516,28.7913669 L32.8194516,20.6546763 Z M12.7470253,20.6546763 L4.67666839,20.6546763 L4.67666839,28.7913669 L12.7470253,28.7913669 L12.7470253,20.6546763 L12.7470253,20.6546763 Z M32.8194516,10.4316547 L24.7490947,10.4316547 L24.7490947,18.5683453 L32.8194516,18.5683453 L32.8194516,10.4316547 Z M22.6797724,10.4316547 L14.6094154,10.4316547 L14.6094154,18.5683453 L22.6797724,18.5683453 L22.6797724,10.4316547 Z" id="shape"></path>
                    </g>
                </g>
            </g>
        </g>
    </g>
</svg>