<?xml version="1.0" encoding="UTF-8"?>
<svg width="124px" height="32px" viewBox="0 0 124 32" version="1.1" xmlns="http://www.w3.org/2000/svg" xmlns:xlink="http://www.w3.org/1999/xlink">
    <!-- Generator: Sketch 41.2 (35397) - http://www.bohemiancoding.com/sketch -->
    <title>black/icon/drupal</title>
    <desc>Created with Sketch.</desc>
    <defs></defs>
    <g id="Page-2" stroke="none" stroke-width="1" fill="none" fill-rule="evenodd">
        <g id="Desktop-Landscape" transform="translate(-91.000000, -1139.000000)">
            <g id="Black" transform="translate(70.000000, 1100.000000)">
                <g id="black/icon/drupal">
                    <rect id="Rectangle" x="0" y="0" width="165" height="110"></rect>
                    <g id="Group" transform="translate(21.000000, 39.000000)" fill="#000000">
                        <path d="M58,6 L52.9452642,6 L52.9535003,15.7775649 C52.9535003,18.6349865 51.7685312,20.9464311 49.0044612,20.9464311 C46.2391901,20.9464311 45.0434111,18.6349865 45.0434111,15.7775649 L45.0434111,6.00957854 L40.0015443,6.00957854 L40,15.7775649 C40,21.4239393 43.5109815,26 48.9737474,26 C54.4349691,26 57.9984557,21.4239393 57.9984557,15.7775649 L58,6" id="Fill-1"></path>
                        <polygon id="Fill-2" points="105 25 110 25 110 0 105 0"></polygon>
                        <polyline id="Fill-3" points="114 0.924630507 114 0 118 0 118 0.924630507 116.536987 0.924630507 116.536987 5 115.463714 5 115.463714 0.924630507 114 0.924630507"></polyline>
                        <polyline id="Fill-4" points="120.436517 0 121.522482 3.43790357 121.535472 3.43790357 122.562317 0 124 0 124 5 123.044265 5 123.044265 1.45644999 123.030942 1.45644999 121.893352 5 121.106148 5 119.968725 1.49142632 119.955735 1.49142632 119.955735 5 119 5 119 0 120.436517 0"></polyline>
                        <path d="M34.8644186,6.15681565 C30.4570349,5.11435671 27.6766279,9.60164908 27.5611628,9.84224403 C27.5044767,9.96039652 27.5022093,10.0292145 27.3070349,10.0238521 C27.1456977,10.0204559 27.1273837,9.84224403 27.1273837,9.84224403 L26.580407,6.40974421 L22,6.40974421 L22,26 L27.1343605,26 L27.1343605,15.3961263 C27.1343605,14.5295555 29.4112209,10.3749134 33.8226163,11.4443633 C36.0537791,11.985255 37,12.955321 37,12.955321 L37,6.98763683 C36.1744767,6.54648651 35.6081395,6.33270378 34.8644186,6.15681565" id="Fill-5"></path>
                        <path d="M70.5042524,11.0346156 C73.4401954,11.0346156 75.8195307,13.3451489 75.8195307,16.1934364 C75.8195307,19.0441833 73.4401954,21.3547166 70.5042524,21.3547166 C67.5688522,21.3547166 65.1902407,19.0441833 65.1902407,16.1934364 C65.1902407,13.3451489 67.5688522,11.0346156 70.5042524,11.0346156 Z M65.3409735,32 L65.3409735,25.0720893 C65.3415164,25.0720893 65.3424211,25.072792 65.342783,25.0733191 L65.3435068,22.4788881 C65.3435068,22.4788881 65.3520116,22.2714109 65.5447253,22.2687757 C65.7166295,22.2670189 65.7549913,22.3775212 65.7967911,22.4788881 C66.2006756,23.4546106 68.421859,27.1716319 73.3509862,26.0056488 C77.763496,24.7989081 81,20.8650986 81,16.1934364 C81,10.5646736 76.2986911,6 70.4999095,6 C64.700947,6 60,10.5646736 60,16.1934364 L60,32 L65.3409735,32 L65.3409735,32 Z" id="Fill-7"></path>
                        <path d="M98.8103022,16.5815852 C98.8103022,19.5408838 96.4307859,21.9393984 93.4959286,21.9393984 C90.5603474,21.9393984 88.1804693,19.5408838 88.1804693,16.5815852 C88.1804693,13.6248398 90.5603474,11.2263252 93.4959286,11.2263252 C96.4307859,11.2263252 98.8103022,13.6248398 98.8103022,16.5815852 Z M98.6590265,26.4158231 L104,26.4158231 L104,16.5815852 C104,10.7384887 99.2995959,6 93.5002714,6 C87.700766,6 83,10.7384887 83,16.5815852 C83,21.4311365 86.236504,25.5147388 90.6490138,26.7674301 C95.5786839,27.9778119 97.7989625,24.1192527 98.2032089,23.1063764 C98.2451897,23.0011496 98.2830086,22.8864396 98.4554557,22.8882633 C98.6479884,22.8909988 98.6559503,23.1063764 98.6559503,23.1063764 L98.6590265,26.4158231 Z" id="Fill-9"></path>
                        <path d="M7.37850434,4.33347292 L5.27287605,4.33347292 L5.27287605,20.662514 L7.43524975,20.7167783 C11.8699303,20.7167783 14.7260566,20.3210497 14.7260566,12.5 C14.7260566,5 12.2043546,4.33347292 7.37850434,4.33347292 Z M5.95648926,25 L0,25 L0,0 L6.39124093,0 C14.1303188,0 20,1.39290201 20,12.5 C20,23.5001396 13.782553,25 5.95648926,25 L5.95648926,25 Z" id="Fill-10"></path>
                    </g>
                </g>
            </g>
        </g>
    </g>
</svg>