<?xml version="1.0" encoding="UTF-8"?>
<svg width="78px" height="78px" viewBox="0 0 78 78" version="1.1" xmlns="http://www.w3.org/2000/svg" xmlns:xlink="http://www.w3.org/1999/xlink">
    <!-- Generator: Sketch 41.2 (35397) - http://www.bohemiancoding.com/sketch -->
    <title>black/icon/git</title>
    <desc>Created with Sketch.</desc>
    <defs></defs>
    <g id="Page-2" stroke="none" stroke-width="1" fill="none" fill-rule="evenodd">
        <g id="Desktop-Landscape" transform="translate(-412.000000, -1682.000000)">
            <g id="Black" transform="translate(70.000000, 1100.000000)">
                <g id="black/icon/git" transform="translate(298.000000, 566.000000)">
                    <rect id="Rectangle" x="0" y="0" width="165" height="110"></rect>
                    <g id="Group" transform="translate(44.000000, 16.000000)" fill="#000000">
                        <path d="M75.6847923,35.9946696 L42.0045224,2.31693891 C40.0662966,0.377020365 36.9202769,0.377020365 34.979512,2.31693891 L27.9858179,9.31063302 L36.8576443,18.1824594 C38.9194425,17.4858831 41.2834009,17.9530886 42.927084,19.5967718 C44.5783847,21.2506116 45.0422046,23.6348832 44.3287006,25.7034525 L52.8789,34.253652 C54.9474693,33.5409943 57.3342801,34.0022751 58.9864271,35.6569613 C61.2953703,37.9650581 61.2953703,41.7060877 58.9864271,44.0158773 C56.6766376,46.3256669 52.9356079,46.3256669 50.624972,44.0158773 C48.8881862,42.2773988 48.4590681,39.726389 49.338464,37.5867232 L41.364654,29.6129131 L41.3638076,50.5965346 C41.9266548,50.8758423 42.4581857,51.2474061 42.927084,51.7146116 C45.2360272,54.0227084 45.2360272,57.763738 42.927084,60.0752204 C40.6172945,62.3841636 36.874572,62.3841636 34.568168,60.0752204 C32.2592248,57.763738 32.2592248,54.0227084 34.568168,51.7146116 C35.1386327,51.1449933 35.7988144,50.7141824 36.5030082,50.4247181 L36.5030082,29.2455813 C35.7988144,28.9578098 35.1394791,28.529538 34.568168,27.9556878 C32.8186865,26.2087454 32.3980323,23.6416543 33.2943559,21.4935246 L24.5494875,12.7469634 L1.4558237,35.8389344 C-0.484941232,37.7805457 -0.484941232,40.9265655 1.4558237,42.866484 L35.1360936,76.5450611 C37.0751657,78.4849796 40.220339,78.4849796 42.1619504,76.5450611 L75.6847923,43.0230656 C77.6247108,41.0823006 77.6247108,37.9345881 75.6847923,35.9946696" id="shape"></path>
                    </g>
                </g>
            </g>
        </g>
    </g>
</svg>