<?xml version="1.0" encoding="UTF-8"?>
<svg width="59px" height="59px" viewBox="0 0 59 59" version="1.1" xmlns="http://www.w3.org/2000/svg" xmlns:xlink="http://www.w3.org/1999/xlink">
    <!-- Generator: Sketch 41.2 (35397) - http://www.bohemiancoding.com/sketch -->
    <title>black/icon/javascript</title>
    <desc>Created with Sketch.</desc>
    <defs></defs>
    <g id="Page-2" stroke="none" stroke-width="1" fill="none" fill-rule="evenodd">
        <g id="Desktop-Landscape" transform="translate(-417.000000, -1263.000000)">
            <g id="Black" transform="translate(70.000000, 1100.000000)">
                <g id="black/icon/javascript" transform="translate(294.000000, 137.000000)">
                    <rect id="Rectangle" x="0" y="0" width="165" height="110"></rect>
                    <g id="Group" transform="translate(53.000000, 26.000000)">
                        <rect id="Rectangle-path" fill="#000000" x="0" y="0" width="59" height="59"></rect>
                        <path d="M40.1708134,46.5949659 C41.3628218,48.563011 42.913654,50.0096001 45.6564946,50.0096001 C47.9606686,50.0096001 49.4325971,48.8451101 49.4325971,47.2361003 C49.4325971,45.307948 47.9202775,44.6250212 45.3840892,43.5032735 L43.9938823,42.9001323 C39.9810689,41.1714441 37.3152533,39.0058347 37.3152533,34.4276604 C37.3152533,30.210421 40.4930032,27 45.4592355,27 C48.9948698,27 51.536694,28.2442756 53.3683856,31.502188 L49.038079,34.3136809 C48.08466,32.5849927 47.0560948,31.9039655 45.4592355,31.9039655 C43.8304391,31.9039655 42.7981165,32.9487771 42.7981165,34.3136809 C42.7981165,36.0005767 43.8313784,36.6835035 46.217274,37.7283151 L47.6074809,38.3305065 C52.3323057,40.379287 55,42.4679602 55,47.1639133 C55,52.2265002 51.0670296,55 45.7851827,55 C40.6207519,55 37.2842554,52.5114488 35.6517016,49.2497371 L40.1708134,46.5949659 Z M20.5266264,47.082228 C21.4002023,48.6494454 22.1948746,49.9744564 24.1054698,49.9744564 C25.9324647,49.9744564 27.0850213,49.2516368 27.0850213,46.4410937 L27.0850213,27.3210421 L32.6458489,27.3210421 L32.6458489,46.51708 C32.6458489,52.3395298 29.2699005,54.9895519 24.3421807,54.9895519 C19.8897613,54.9895519 17.3113033,52.6596221 16,49.8533532 L20.5266264,47.082228 Z" id="Shape" fill="#FFFFFF"></path>
                    </g>
                </g>
            </g>
        </g>
    </g>
</svg>