<?xml version="1.0" encoding="UTF-8"?>
<svg width="79px" height="54px" viewBox="0 0 79 54" version="1.1" xmlns="http://www.w3.org/2000/svg" xmlns:xlink="http://www.w3.org/1999/xlink">
    <!-- Generator: Sketch 41.2 (35397) - http://www.bohemiancoding.com/sketch -->
    <title>black/icon/laravel</title>
    <desc>Created with Sketch.</desc>
    <defs></defs>
    <g id="Page-2" stroke="none" stroke-width="1" fill="none" fill-rule="evenodd">
        <g id="Desktop-Landscape" transform="translate(-695.000000, -1128.000000)">
            <g id="Black" transform="translate(70.000000, 1100.000000)">
                <g id="black/icon/laravel" transform="translate(582.000000, 0.000000)">
                    <rect id="Rectangle" x="0" y="0" width="165" height="110"></rect>
                    <g id="Group" transform="translate(43.000000, 28.000000)" fill="#000000">
                        <path d="M78.6830868,25.2311632 C78.1196857,24.668694 70.8893707,15.5754413 69.6686681,14.0755234 C68.3540654,12.5756054 67.7906642,12.85684 66.9455625,12.9505849 C66.1004607,13.0443298 56.9921418,14.6379926 55.9592397,14.7317375 C54.9263375,14.9192272 54.2690361,15.2942067 54.9263375,16.2316554 C55.4897387,17.0753593 61.4993512,25.5123978 62.8139539,27.4810402 L38.8694042,33.1994774 L19.9015648,1.41996553 C19.1503632,0.29502706 18.9625628,-0.0799524309 17.2723593,0.0137924419 C15.5821558,0.107537315 2.3422283,1.23247579 1.40322635,1.23247579 C0.464224402,1.32622066 -0.568677743,1.70120015 0.370324207,3.9510771 C1.30932616,6.20095405 16.3333574,38.4491903 16.7089581,39.386639 C17.0845589,40.3240878 18.2113613,41.8240057 20.7466665,41.2615365 C23.375872,40.6053224 32.3902907,38.2617006 37.367001,36.9492723 C39.9962065,41.636516 45.2546174,51.198493 46.2875196,52.6046661 C47.6021223,54.4795636 48.5411242,54.1045841 50.5130283,53.5421148 C52.1093317,53.0733905 75.1148794,44.8238417 76.1477816,44.3551173 C77.1806837,43.8863929 77.8379851,43.6051583 77.0867835,42.5739647 C76.5233824,41.8240057 70.5137699,33.6682018 67.3211632,29.4496825 C69.4808677,28.8872133 77.2745839,26.8248261 78.1196857,26.5435915 C79.0586876,26.2623568 79.246488,25.7936325 78.6830868,25.2311632 Z M35.2072966,34.1369261 C34.925596,34.230671 21.4978681,37.4179967 20.8405667,37.6054864 C20.0893652,37.7929762 20.0893652,37.6992313 20.0893652,37.4179967 C19.9015648,37.1367621 4.12633201,4.51354634 3.84463142,4.13856685 C3.65683103,3.76358735 3.65683103,3.38860786 3.84463142,3.38860786 C4.03243181,3.38860786 16.5211577,2.26366939 16.8967585,2.26366939 C17.3662595,2.26366939 17.2723593,2.35741426 17.4601597,2.63864888 C17.4601597,2.63864888 35.0194962,32.9182428 35.3011967,33.3869672 C35.6767975,33.8556915 35.4889971,34.0431813 35.2072966,34.1369261 Z M72.9551749,41.1677916 C73.1429753,41.5427711 73.4246759,41.7302608 72.6734744,41.9177506 C72.016173,42.1989852 50.0435274,49.6048302 49.5740264,49.7923199 C49.1045254,49.9798097 48.8228248,50.0735545 48.2594237,49.2298507 C47.6960225,48.3861468 40.5596077,36.1055685 40.5596077,36.1055685 L63.9407562,30.0121517 C64.5041574,29.824662 64.6919578,29.7309171 65.0675586,30.2933864 C65.4431593,30.9496005 72.7673746,40.886557 72.9551749,41.1677916 Z M74.4575781,24.668694 C73.8941769,24.7624389 65.3492592,26.9185709 65.3492592,26.9185709 L58.3067445,17.3565939 C58.1189441,17.0753593 57.9311437,16.7941247 58.4006447,16.7003798 C58.8701457,16.6066349 66.8516623,15.2004618 67.2272631,15.106717 C67.6028638,15.0129721 67.8845644,14.9192272 68.3540654,15.5754413 C68.8235664,16.1379106 74.8331788,23.8249901 75.1148794,24.1062248 C75.39658,24.3874594 75.0209792,24.5749491 74.4575781,24.668694 Z" id="Shape"></path>
                    </g>
                </g>
            </g>
        </g>
    </g>
</svg>