<?xml version="1.0" encoding="UTF-8"?>
<svg width="139px" height="29px" viewBox="0 0 139 29" version="1.1" xmlns="http://www.w3.org/2000/svg" xmlns:xlink="http://www.w3.org/1999/xlink">
    <!-- Generator: Sketch 41.2 (35397) - http://www.bohemiancoding.com/sketch -->
    <title>black/icon/nginx</title>
    <desc>Created with Sketch.</desc>
    <defs></defs>
    <g id="Page-2" stroke="none" stroke-width="1" fill="none" fill-rule="evenodd">
        <g id="Desktop-Landscape" transform="translate(-960.000000, -1458.000000)">
            <g id="Black" transform="translate(70.000000, 1100.000000)">
                <g id="black/icon/nginx" transform="translate(877.000000, 317.000000)">
                    <rect id="Rectangle" x="0" y="0" width="165" height="110"></rect>
                    <g id="Group" transform="translate(13.000000, 41.000000)" fill="#000000">
                        <path d="M26.04581,28.9421197 C25.2605611,28.9421197 24.487811,28.6381171 23.9101503,28.0620268 L6.03962388,10.2719255 L6.03962388,25.9364429 C6.03962388,27.5970976 4.68785454,28.9423901 3.01981194,28.9423901 C1.35285618,28.9423901 1.42108547e-14,27.5968271 1.42108547e-14,25.9364429 L1.42108547e-14,3.01454 C1.42108547e-14,1.79771828 0.736884108,0.702335306 1.86503411,0.237135624 C2.99322112,-0.229209867 4.29260947,0.0281929673 5.15547163,0.888956108 L23.0259981,18.6790574 L23.0259981,3.01454 C23.0259981,1.35388532 24.3777674,0.00859275773 26.04581,0.00859275773 C27.7141243,0.00859275773 29.065622,1.35415579 29.065622,3.01454 L29.065622,25.9364429 C29.0647225,27.5962107 27.7132334,28.9414948 26.04581,28.9423901 M40.0297619,0.0375325053 L39.1999522,1.57918261 L32.7823763,13.1888898 L31.9525665,14.6548097 L32.7823763,16.1191068 L39.2002239,27.3542201 L40.0672582,28.8942474 L56.8656074,28.8942474 L57.6954172,27.2038416 L62.4895113,17.5844858 L64.6409303,13.2259435 L59.7718436,13.2259435 L47.5042991,13.2632676 C45.9088037,13.2416304 44.4410132,14.6807743 44.4410132,16.2692149 C44.4410132,17.8573849 45.9088037,19.2978812 47.5042991,19.2751621 L54.9027569,19.237838 L53.0909784,22.8820824 L43.5783262,22.8820824 L38.8589531,14.6158627 L43.6158226,6.04915653 L53.7343934,6.04915653 L56.0934007,10.8680302 L62.1716078,10.8680302 L58.3404625,1.72929065 L57.5092942,0.0375325053 L40.0300336,0.0375325053 M70.6224077,0.00020834487 C69.0399545,0.019411355 67.6197137,1.46964431 67.6400921,3.04347975 L67.6400921,10.8769555 L73.679716,10.8769555 L73.679716,3.04347975 C73.6987359,1.44395015 72.2276848,-0.020076525 70.6224077,0.00020834487 M80.3027064,28.9999992 C78.6355212,28.9989543 77.2844309,27.653583 77.2839814,25.9940519 L77.2839814,3.07214903 C77.2839814,1.41176482 78.6357507,0.066472253 80.3037933,0.066472253 C81.9721076,0.066472253 83.3236052,1.41176482 83.3236052,3.0724195 L83.3236052,18.7366664 L101.194675,0.946294673 C102.057755,0.0859369553 103.35688,-0.171413703 104.485113,0.29447419 C105.613378,0.760146555 106.348873,1.85634826 106.348788,3.07214903 L106.348788,25.9940519 C106.348788,27.6541657 104.997019,28.9997287 103.328976,28.9997287 C101.660662,28.9997287 100.309164,27.6541657 100.309164,25.9937815 L100.309164,10.329805 L82.4380944,28.1199063 C81.871872,28.683944 81.1034888,29.0005902 80.3024347,28.9999992 M128.717786,14.510111 L138.111699,5.19340548 C139.293105,4.02229233 139.296637,2.11876015 138.119036,0.94169677 C136.942521,-0.23428475 135.031567,-0.236718935 133.849075,0.934394216 L124.44076,10.2673276 L115.032174,0.934394216 C113.849682,-0.237800794 111.938728,-0.234014285 110.762485,0.94169677 C109.584612,2.11876015 109.588144,4.02229233 110.768463,5.19340548 L120.162376,14.5103814 L110.796177,23.8008518 C109.613685,24.9733173 109.611239,26.8754971 110.788841,28.0512082 C111.35442,28.6189394 112.124804,28.9376394 112.928033,28.9361695 C113.698881,28.9361695 114.469458,28.6440673 115.058802,28.0585107 L124.44076,18.7534353 L133.82136,28.0585107 C134.386628,28.6213582 135.153683,28.9371451 135.953216,28.9361695 C136.728683,28.9361695 137.501977,28.6416331 138.092408,28.0512082 C139.268923,26.8754971 139.266477,24.9733173 138.085072,23.8011223 L128.717786,14.510111 M70.6224077,28.9145323 C69.0399545,28.8955997 67.6197137,27.4453668 67.6400921,25.8715313 L67.6400921,13.2886913 L73.679716,13.2886913 L73.679716,25.8715313 C73.6987359,27.4694381 72.2276848,28.9337353 70.6224077,28.9145323" id="Shape"></path>
                    </g>
                </g>
            </g>
        </g>
    </g>
</svg>