<?xml version="1.0" encoding="UTF-8"?>
<svg width="129px" height="80px" viewBox="0 0 129 80" version="1.1" xmlns="http://www.w3.org/2000/svg" xmlns:xlink="http://www.w3.org/1999/xlink">
    <!-- Generator: Sketch 41.2 (35397) - http://www.bohemiancoding.com/sketch -->
    <title>black/icon/nodejs</title>
    <desc>Created with Sketch.</desc>
    <defs>
        <path d="M12.9792397,31.0679892 L0.79343998,24.0343294 C0.337559992,23.7715894 0.0571299986,23.2855494 0.0571299986,22.7597794 L0.0571299986,22.7597794 L0.0571299986,8.68085978 C0.0571299986,8.1547998 0.337559992,7.66904981 0.79285998,7.40572981 L0.79285998,7.40572981 L12.9786597,0.366269991 C13.4342497,0.103239997 13.9956897,0.103239997 14.4515696,0.366269991 L14.4515696,0.366269991 L26.6399793,7.40572981 C27.0955693,7.66904981 27.3759993,8.1547998 27.3759993,8.68085978 L27.3759993,8.68085978 L27.3759993,22.7591994 C27.3759993,23.2855494 27.0955693,23.7715894 26.6396893,24.0343294 L26.6396893,24.0343294 L14.4509896,31.0679892 C14.2233396,31.1996492 13.9692997,31.2651892 13.7149697,31.2651892 L13.7149697,31.2651892 C13.4609297,31.2651892 13.2065997,31.1996492 12.9792397,31.0679892" id="path-1"></path>
        <linearGradient x1="-0.000753691496%" y1="50.0001352%" x2="100.000189%" y2="50.0001352%" id="linearGradient-3">
            <stop stop-color="#231F20" offset="0%"></stop>
            <stop stop-color="#231F20" offset="0.530134%"></stop>
            <stop stop-color="#797B7D" offset="72.538782%"></stop>
            <stop stop-color="#797B7D" offset="100%"></stop>
        </linearGradient>
        <path d="M12.9821397,31.0679892 L0.79343998,24.0343294 C0.337559992,23.7715894 0.0571299986,23.2855494 0.0571299986,22.7591994 L0.0571299986,22.7591994 L0.0571299986,8.68085978 C0.0571299986,8.1547998 0.337559992,7.66904981 0.79285998,7.40572981 L0.79285998,7.40572981 L12.9818497,0.366269991 C13.4374397,0.103239997 13.9985897,0.103239997 14.4541796,0.366269991 L14.4541796,0.366269991 L26.6399793,7.40572981 C27.0955693,7.66904981 27.3759993,8.1547998 27.3759993,8.68085978 L27.3759993,8.68085978 L27.3759993,22.7597794 C27.3759993,23.2855494 27.0955693,23.7715894 26.6399793,24.0343294 L26.6399793,24.0343294 L14.4538896,31.0679892 C14.2262396,31.1996492 13.9721997,31.2651892 13.7178697,31.2651892 L13.7178697,31.2651892 C13.4638297,31.2651892 13.2097897,31.1996492 12.9821397,31.0679892" id="path-4"></path>
        <polygon id="path-6" points="0.0527799987 31.2211092 26.6608593 31.2211092 26.6608593 0.171099996 0.0527799987 0.171099996"></polygon>
        <linearGradient x1="-3.95316025%" y1="50.0000467%" x2="102.996638%" y2="50.0000467%" id="linearGradient-8">
            <stop stop-color="#797B7D" offset="0%"></stop>
            <stop stop-color="#797B7D" offset="27.461227%"></stop>
            <stop stop-color="#231F20" offset="99.4699%"></stop>
            <stop stop-color="#231F20" offset="100%"></stop>
        </linearGradient>
    </defs>
    <g id="Page-2" stroke="none" stroke-width="1" fill="none" fill-rule="evenodd">
        <g id="Desktop-Landscape" transform="translate(-969.000000, -1252.000000)">
            <g id="Black" transform="translate(70.000000, 1100.000000)">
                <g id="black/icon/nodejs" transform="translate(881.000000, 137.000000)">
                    <rect id="Rectangle" x="0" y="0" width="165" height="110"></rect>
                    <g id="g10" transform="translate(82.500000, 55.000000) scale(1, -1) translate(-82.500000, -55.000000) translate(18.000000, 15.000000)">
                        <g id="g12" fill="#000000">
                            <path d="M64.0388798,0.784197805 C63.6154799,0.784197805 63.1941099,0.894977803 62.8237799,1.1092878 L58.95518,3.39825774 C58.37779,3.72131773 58.65996,3.83586773 58.8502,3.90227773 C59.62102,4.16965772 59.77675,4.23142772 60.5994799,4.69803771 C60.6850299,4.74617771 60.7987099,4.72790771 60.8871599,4.67599771 L63.8590799,2.91134775 C63.9666699,2.85160775 64.1189198,2.85160775 64.2178098,2.91134775 L75.8044696,9.59903759 C75.9120596,9.66051758 75.9813696,9.78463758 75.9813696,9.91252758 L75.9813696,23.2838472 C75.9813696,23.4146372 75.9120596,23.5367272 75.8015696,23.6031372 L64.2198398,30.2850271 C64.1128298,30.3473771 63.9707299,30.3473771 63.8628499,30.2850271 L52.2840201,23.6011072 C52.1715001,23.5367272 52.1001601,23.4108672 52.1001601,23.2838472 L52.1001601,9.91252758 C52.1001601,9.78463758 52.1715001,9.66341758 52.2831501,9.60280758 L55.4569101,7.76884763 C57.17922,6.90783765 58.23366,7.92196763 58.23366,8.9407376 L58.23366,22.1426973 C58.23366,22.3294573 58.38359,22.4764873 58.57035,22.4764873 L60.0394899,22.4764873 C60.2233499,22.4764873 60.3753099,22.3294573 60.3753099,22.1426973 L60.3753099,8.9407376 C60.3753099,6.64248766 59.12367,5.32443769 56.94432,5.32443769 C56.27471,5.32443769 55.7474901,5.32443769 54.2754501,6.04972767 L51.2374102,7.79871763 C50.4868902,8.23255762 50.0220202,9.0436876 50.0220202,9.91252758 L50.0220202,23.2838472 C50.0220202,24.1523972 50.4868902,24.9635272 51.2374102,25.3956272 L62.8237799,32.090857 C63.5568999,32.505557 64.5315898,32.505557 65.2589098,32.090857 L76.8444095,25.3956272 C77.5949295,24.9617872 78.0615395,24.1523972 78.0615395,23.2838472 L78.0615395,9.91252758 C78.0615395,9.0436876 77.5949295,8.23574762 76.8444095,7.79871763 L65.2589098,1.1092878 C64.8882898,0.894977803 64.4680798,0.784197805 64.0388798,0.784197805" id="path22"></path>
                            <path d="M67.6178568,9.99627958 C62.5477869,9.99627958 61.4855169,12.3235295 61.4855169,14.2755195 C61.4855169,14.4614095 61.6345769,14.6095995 61.8204669,14.6095995 L63.3183169,14.6095995 C63.4856469,14.6095995 63.6251369,14.4892495 63.6512369,14.3256895 C63.8774369,12.8008695 64.5516868,12.0312095 67.6178568,12.0312095 C70.0587867,12.0312095 71.0978567,12.5833695 71.0978567,13.8782195 C71.0978567,14.6249695 70.8032167,15.1791594 67.0100168,15.5503594 C63.8397369,15.8641394 61.8790469,16.5644894 61.8790469,19.1005393 C61.8790469,21.4385193 63.8493069,22.8325493 67.1532768,22.8325493 C70.8649867,22.8325493 72.7015566,21.5443693 72.9344266,18.7800894 C72.9431266,18.6849694 72.9094866,18.5936194 72.8459766,18.5222794 C72.7824666,18.4558694 72.6940166,18.4155594 72.6006366,18.4155594 L71.0969867,18.4155594 C70.9409667,18.4155594 70.8032167,18.5263394 70.7716067,18.6771394 C70.4108467,20.2819993 69.5333067,20.7947193 67.1532768,20.7947193 C64.4881768,20.7947193 64.1784568,19.8664293 64.1784568,19.1707193 C64.1784568,18.3279794 64.5438568,18.0826394 68.1421767,17.6064594 C71.7027967,17.1357894 73.3943666,16.4693694 73.3943666,13.9666695 C73.3943666,11.4422195 71.2892567,9.99627958 67.6178568,9.99627958" id="path26"></path>
                            <path d="M81.7263564,24.1732192 L82.1161164,24.1732192 C82.4345364,24.1732192 82.4939864,24.3973892 82.4939864,24.5273092 C82.4939864,24.8703792 82.2573464,24.8703792 82.1274264,24.8703792 L81.7263564,24.8703792 L81.7263564,24.1732192 Z M81.2530764,25.2720292 L82.1161164,25.2720292 C82.4113364,25.2720292 82.9904664,25.2720292 82.9904664,24.6099592 C82.9904664,24.1491492 82.6952464,24.0548992 82.5171864,23.9957392 C82.8605464,23.9722492 82.8837464,23.7474992 82.9307264,23.4284992 C82.9547964,23.2281092 82.9904664,22.8850393 83.0609364,22.7672993 L82.5296564,22.7672993 C82.5171864,22.8850393 82.4345364,23.5233292 82.4345364,23.5584192 C82.3997364,23.7005192 82.3515964,23.7709892 82.1746964,23.7709892 L81.7379564,23.7709892 L81.7379564,22.7672993 L81.2530764,22.7672993 L81.2530764,25.2720292 Z M80.2198064,24.0256092 C80.2198064,22.9856693 81.0584864,22.1466993 82.0862464,22.1466993 C83.1261864,22.1466993 83.9651564,23.0033592 83.9651564,24.0256092 C83.9651564,25.0649692 83.1145864,25.8920492 82.0862464,25.8920492 C81.0700864,25.8920492 80.2198064,25.0771492 80.2198064,24.0256092 L80.2198064,24.0256092 Z M84.3250463,24.0192292 C84.3250463,22.7907893 83.3204864,21.7862293 82.0920464,21.7862293 C80.8749164,21.7862293 79.8590465,22.7786093 79.8590465,24.0192292 C79.8590465,25.2836292 80.8989864,26.2528092 82.0920464,26.2528092 C83.2975764,26.2528092 84.3250463,25.2836292 84.3250463,24.0192292 L84.3250463,24.0192292 Z" id="path30"></path>
                            <path d="M28.1595297,53.0984855 C28.1595297,53.6323755 27.8785198,54.1230555 27.4177098,54.3878255 L15.1336001,61.4571553 C14.9259601,61.5792453 14.6930901,61.6430453 14.4573201,61.6526153 L14.3303001,61.6526153 C14.0956901,61.6430453 13.8628201,61.5792453 13.6519901,61.4571553 L1.36788042,54.3878255 C0.909970427,54.1230555 0.625190434,53.6323755 0.625190434,53.0984855 L0.652160434,34.062596 C0.652160434,33.797826 0.78962043,33.551616 1.02278042,33.421696 C1.25072042,33.285106 1.53260041,33.285106 1.75967041,33.421696 L9.06013022,37.6020459 C9.52181021,37.8763859 9.8028202,38.3601059 9.8028202,38.8893559 L9.8028202,47.7827856 C9.8028202,48.3129056 10.0835402,48.8038756 10.5434802,49.0671956 L13.6519901,50.8576556 C13.8839901,50.9916356 14.1368701,51.0568855 14.3958401,51.0568855 C14.6487201,51.0568855 14.9085601,50.9916356 15.1336001,50.8576556 L18.24124,49.0671956 C18.70118,48.8038756 18.98306,48.3129056 18.98306,47.7827856 L18.98306,38.8893559 C18.98306,38.3601059 19.26784,37.8731959 19.72662,37.6020459 L27.0250498,33.421696 C27.2541498,33.285106 27.5400898,33.285106 27.7668698,33.421696 C27.9930698,33.551616 28.1354597,33.797826 28.1354597,34.062596 L28.1595297,53.0984855 Z" id="path34"></path>
                            <path d="M86.1262073,43.1865467 C86.1262073,43.0543067 86.0554473,42.9316368 85.9406073,42.8658068 L81.7211074,40.4335768 C81.6068474,40.3677468 81.4653274,40.3677468 81.3507774,40.4335768 L77.1315675,42.8658068 C77.0164375,42.9316368 76.9459675,43.0543067 76.9459675,43.1865467 L76.9459675,48.0585466 C76.9459675,48.1907866 77.0164375,48.3134566 77.1312775,48.3798666 L81.3504874,50.8170266 C81.4653274,50.8834366 81.6068474,50.8834366 81.7216874,50.8170266 L85.9408973,48.3798666 C86.0554473,48.3134566 86.1262073,48.1907866 86.1262073,48.0585466 L86.1262073,43.1865467 Z M87.2664873,79.2666058 C87.0365173,79.3944958 86.7557973,79.3915958 86.5287273,79.2584858 C86.3022373,79.1250858 86.1627473,78.8817759 86.1627473,78.6187459 L86.1627473,59.7667163 C86.1627473,59.5816963 86.0635673,59.4100163 85.9034873,59.3172163 C85.7428273,59.2241263 85.5447573,59.2241263 85.3840973,59.3172163 L82.3071974,61.0896963 C81.8481274,61.3541763 81.2834974,61.3538863 80.8247174,61.0891163 L68.5356777,53.9971665 C68.0763177,53.7321065 67.7935678,53.2422965 67.7935678,52.7121765 L67.7935678,38.5253769 C67.7935678,37.9949669 68.0763177,37.5054469 68.5353877,37.2398069 L80.8235574,30.1423471 C81.2829174,29.8772871 81.8487074,29.8772871 82.3080674,30.1423471 L94.5985571,37.2398069 C95.0573371,37.5054469 95.3403771,37.9949669 95.3403771,38.5253769 L95.3403771,73.890006 C95.3403771,74.427666 95.0492171,74.923856 94.5791271,75.1860159 L87.2664873,79.2666058 Z" id="path38"></path>
                            <path d="M128.186443,48.1860596 C128.643483,48.4516996 128.924783,48.9403496 128.924783,49.4690196 L128.924783,52.9069695 C128.924783,53.4356395 128.643483,53.9248695 128.185863,54.1905095 L115.975994,61.2795593 C115.516634,61.5466493 114.949394,61.5472293 114.489164,61.2815893 L102.204474,54.1896395 C101.745694,53.9245795 101.462654,53.4347695 101.462654,52.9046495 L101.462654,38.7213299 C101.462654,38.1880199 101.749174,37.6958899 102.212304,37.4322799 L114.420434,30.4757601 C114.870514,30.2188201 115.422384,30.2159201 115.875364,30.4676401 L123.259633,34.57201 C123.493663,34.70222 123.639533,34.94814 123.640983,35.2155199 C123.643013,35.4831899 123.500623,35.7308499 123.268623,35.8639599 L110.906214,42.9593898 C110.675374,43.0916297 110.533564,43.3375497 110.533564,43.6031897 L110.533564,48.0480196 C110.533564,48.3130796 110.674794,48.5584196 110.904764,48.6906596 L114.752194,50.9088696 C114.981294,51.0411095 115.264044,51.0411095 115.492854,50.9088696 L119.342313,48.6906596 C119.572283,48.5584196 119.713803,48.3130796 119.713803,48.0480196 L119.713803,44.5509097 C119.713803,44.2852697 119.855613,44.0399297 120.085583,43.9076897 C120.315553,43.7748697 120.598883,43.7757397 120.828273,43.9091397 L128.186443,48.1860596 Z" id="path42"></path>
                            <path d="M115.051445,48.8503916 C115.139605,48.9014316 115.248065,48.9014316 115.336225,48.8503916 L117.694215,47.4900016 C117.782375,47.4389616 117.836605,47.3452916 117.836605,47.2432116 L117.836605,44.5204017 C117.836605,44.4186117 117.782375,44.3246517 117.694215,44.2736117 L115.336225,42.9132218 C115.248065,42.8624718 115.139605,42.8624718 115.051445,42.9132218 L112.695195,44.2736117 C112.607325,44.3246517 112.552805,44.4186117 112.552805,44.5204017 L112.552805,47.2432116 C112.552805,47.3452916 112.607325,47.4389616 112.695195,47.4900016 L115.051445,48.8503916 Z" id="path46"></path>
                        </g>
                        <g id="g48" transform="translate(34.259999, 30.139998)">
                            <g id="g50-Clipped">
                                <mask id="mask-2" fill="white">
                                    <use xlink:href="#path-1"></use>
                                </mask>
                                <g id="path52"></g>
                                <g id="g50" mask="url(#mask-2)" fill="url(#linearGradient-3)">
                                    <g id="g56">
                                        <g id="g58">
                                            <path d="M12.9792397,31.0679892 L0.79343998,24.0343294 C0.337559992,23.7715894 0.0571299986,23.2855494 0.0571299986,22.7597794 L0.0571299986,22.7597794 L0.0571299986,8.68085978 C0.0571299986,8.1547998 0.337559992,7.66904981 0.79285998,7.40572981 L0.79285998,7.40572981 L12.9786597,0.366269991 C13.4342497,0.103239997 13.9956897,0.103239997 14.4515696,0.366269991 L14.4515696,0.366269991 L26.6399793,7.40572981 C27.0955693,7.66904981 27.3759993,8.1547998 27.3759993,8.68085978 L27.3759993,8.68085978 L27.3759993,22.7591994 C27.3759993,23.2855494 27.0955693,23.7715894 26.6396893,24.0343294 L26.6396893,24.0343294 L14.4509896,31.0679892 C14.2233396,31.1996492 13.9692997,31.2651892 13.7149697,31.2651892 L13.7149697,31.2651892 C13.4609297,31.2651892 13.2065997,31.1996492 12.9792397,31.0679892" id="path70"></path>
                                        </g>
                                    </g>
                                </g>
                            </g>
                        </g>
                        <g id="g72" transform="translate(34.259999, 30.139998)">
                            <g id="g74-Clipped">
                                <mask id="mask-5" fill="white">
                                    <use xlink:href="#path-4"></use>
                                </mask>
                                <g id="path76"></g>
                                <g id="g74" mask="url(#mask-5)">
                                    <g transform="translate(0.290000, 0.000000)" id="g80">
                                        <g>
                                            <g id="g94">
                                                <g id="g92-Clipped">
                                                    <mask id="mask-7" fill="white">
                                                        <use xlink:href="#path-6"></use>
                                                    </mask>
                                                    <g id="path84"></g>
                                                    <g id="g92" opacity="0.66000402" mask="url(#mask-7)">
                                                        <g transform="translate(-0.290000, -0.290000)" id="g90">
                                                            <g transform="translate(0.188094, 0.254330)">
                                                                <path d="M26.3899993,24.0699994 L14.2555296,31.1039492 C14.1340196,31.1741292 14.0040996,31.2240092 13.8706997,31.2567792 L0.154859996,7.79345981 C0.270279993,7.65454981 0.40947999,7.53361981 0.568979986,7.44139981 L12.7759497,0.40193999 C13.1398997,0.191979995 13.5609797,0.152539996 13.9484197,0.277819993 L26.7629393,23.7428794 C26.6625993,23.8710594 26.5399293,23.9835794 26.3899993,24.0699994" id="path88" fill="#B4B4B4"></path>
                                                            </g>
                                                        </g>
                                                    </g>
                                                </g>
                                            </g>
                                        </g>
                                    </g>
                                </g>
                            </g>
                        </g>
                        <g id="g96" transform="translate(35.129999, 30.139998)" fill="url(#linearGradient-8)">
                            <g id="g98">
                                <g id="g104">
                                    <g id="g106">
                                        <path d="M12.7570997,31.2625792 C12.5335097,31.2486592 12.3125297,31.1836992 12.1121397,31.0679892 L12.1121397,31.0679892 L0.039729999,24.1016094 L13.1543997,0.209959995 C13.2915697,0.242439994 13.4255497,0.292899993 13.5525697,0.366269991 L13.5525697,0.366269991 L25.7122694,7.40572981 C26.1672793,7.66904981 26.3899993,8.1547998 26.3899993,8.68085978 L26.3899993,8.68085978 L26.3899993,8.73595978 L13.2355997,31.2089292 C13.1036497,31.2457592 12.9676397,31.2643192 12.8319197,31.2643192 L12.8319197,31.2643192 C12.8069797,31.2643192 12.7820397,31.2637392 12.7570997,31.2625792" id="path118"></path>
                                    </g>
                                </g>
                            </g>
                        </g>
                    </g>
                </g>
            </g>
        </g>
    </g>
</svg>