<?xml version="1.0" encoding="UTF-8"?>
<svg width="134px" height="47px" viewBox="0 0 134 47" version="1.1" xmlns="http://www.w3.org/2000/svg" xmlns:xlink="http://www.w3.org/1999/xlink">
    <!-- Generator: Sketch 41.2 (35397) - http://www.bohemiancoding.com/sketch -->
    <title>black/icon/rails</title>
    <desc>Created with Sketch.</desc>
    <defs></defs>
    <g id="Page-2" stroke="none" stroke-width="1" fill="none" fill-rule="evenodd">
        <g id="Desktop-Landscape" transform="translate(-959.000000, -1132.000000)">
            <g id="Black" transform="translate(70.000000, 1100.000000)">
                <g id="black/icon/rails" transform="translate(873.000000, 0.000000)">
                    <rect id="Rectangle" x="0" y="0" width="165" height="110"></rect>
                    <g id="Group" transform="translate(16.000000, 32.000000)" fill="#000000">
                        <g id="text" transform="translate(43.000000, 22.000000)">
                            <path d="M73.6762963,18.5763889 L73.6762963,24.8611111 L84.6974074,24.8611111 C86.9555556,24.8611111 90.8314815,23.1597222 90.9662963,18.4027778 L90.9662963,15.9722222 C90.9662963,11.9097222 87.7307407,9.51388889 84.6974074,9.51388889 L79.2037037,9.51388889 L79.2037037,6.59722222 L90.09,6.59722222 L90.09,0.277777778 L79.6418519,0.277777778 C76.9455556,0.277777778 73.3392593,2.56944444 73.3392593,6.84027778 L73.3392593,9.02777778 C73.3392593,13.2986111 76.9118519,15.4861111 79.6418519,15.4861111 C87.2251852,15.5208333 77.8218519,15.4861111 84.8322222,15.4861111 L84.8322222,18.5416667" id="Shape"></path>
                            <path d="M14.6274074,17.0486111 C14.6274074,17.0486111 20.5255556,16.5277778 20.5255556,8.68055556 C20.5255556,0.833333333 13.3803704,0.104166667 13.3803704,0.104166667 L0.505555556,0.104166667 L0.505555556,24.8611111 L6.97666667,24.8611111 L6.97666667,18.8888889 L12.5714815,24.8611111 L22.1433333,24.8611111 L14.6274074,17.0486111 Z M12.1333333,11.9791667 L6.97666667,11.9791667 L6.97666667,6.31944444 L12.167037,6.31944444 C12.167037,6.31944444 13.6162963,6.875 13.6162963,9.13194444 C13.6162963,11.3888889 12.1333333,11.9791667 12.1333333,11.9791667 Z" id="Shape"></path>
                            <path d="M36.5011111,0.277777778 L29.9288889,0.277777778 C25.2440741,0.277777778 23.66,4.65277778 23.66,6.73611111 L23.66,24.8611111 L30.2322222,24.8611111 L30.2322222,20.5208333 L36.4,20.5208333 L36.4,24.8611111 L42.77,24.8611111 L42.77,6.73611111 C42.77,1.45833333 38.1188889,0.277777778 36.5011111,0.277777778 Z M36.4,13.5069444 L30.1985185,13.5069444 L30.1985185,7.5 C30.1985185,7.5 30.1985185,6.14583333 32.2544444,6.14583333 L34.5125926,6.14583333 C36.3325926,6.14583333 36.3662963,7.5 36.3662963,7.5 L36.3662963,13.5069444 L36.4,13.5069444 Z" id="Shape"></path>
                            <rect id="Shape" x="45.7696296" y="0.277777778" width="6.84185185" height="24.5833333"></rect>
                            <polygon id="Shape" points="62.217037 18.5069444 62.217037 0.277777778 55.4088889 0.277777778 55.4088889 18.5069444 55.4088889 24.8611111 62.217037 24.8611111 71.4181481 24.8611111 71.4181481 18.5069444"></polygon>
                        </g>
                        <g id="shape">
                            <path d="M2.36403509,46.8657143 L29.0438596,46.8657143 C29.0438596,46.8657143 23.9442982,23.735 40.8302632,14.3685714 C44.5114035,12.5892857 56.2302632,5.94214286 75.4127193,20.0421429 C76.020614,19.5385714 76.5947368,19.1357143 76.5947368,19.1357143 C76.5947368,19.1357143 59.0333333,1.71214286 39.479386,3.65928571 C29.6517544,4.53214286 17.5614035,13.4285714 10.4692982,25.1785714 C3.37719298,36.9285714 2.36403509,46.8657143 2.36403509,46.8657143 Z" id="Shape"></path>
                            <path d="M2.36403509,46.8657143 L29.0438596,46.8657143 C29.0438596,46.8657143 23.9442982,23.735 40.8302632,14.3685714 C44.5114035,12.5892857 56.2302632,5.94214286 75.4127193,20.0421429 C76.020614,19.5385714 76.5947368,19.1357143 76.5947368,19.1357143 C76.5947368,19.1357143 59.0333333,1.71214286 39.479386,3.65928571 C29.6517544,4.53214286 17.5614035,13.4285714 10.4692982,25.1785714 C3.37719298,36.9285714 2.36403509,46.8657143 2.36403509,46.8657143 Z" id="Shape"></path>
                            <path d="M2.36403509,46.8657143 L29.0438596,46.8657143 C29.0438596,46.8657143 23.9442982,23.735 40.8302632,14.3685714 C44.5114035,12.5892857 56.2302632,5.94214286 75.4127193,20.0421429 C76.020614,19.5385714 76.5947368,19.1357143 76.5947368,19.1357143 C76.5947368,19.1357143 59.0333333,1.71214286 39.479386,3.65928571 C29.6179825,4.53214286 17.5276316,13.4285714 10.4355263,25.1785714 C3.34342105,36.9285714 2.36403509,46.8657143 2.36403509,46.8657143 Z" id="Shape"></path>
                            <path d="M57.9526316,5.53928571 L58.0877193,3.29 C57.7837719,3.12214286 56.9394737,2.71928571 54.8118421,2.115 L54.6767544,4.33071429 C55.7912281,4.7 56.8719298,5.10285714 57.9526316,5.53928571 Z" id="Shape"></path>
                            <path d="M54.7442982,12.6564286 L54.6092105,14.7714286 C55.7236842,14.805 56.8381579,14.9392857 57.9526316,15.1742857 L58.0877193,13.0928571 C56.9394737,12.8578571 55.825,12.7235714 54.7442982,12.6564286 Z" id="Shape"></path>
                            <path d="M42.2486842,2.18214286 L42.5864035,2.18214286 L41.9109649,0.134285714 C40.8640351,0.134285714 39.7833333,0.201428571 38.6688596,0.335714286 L39.3105263,2.31642857 C40.2899123,2.21571429 41.2692982,2.18214286 42.2486842,2.18214286 Z" id="Shape"></path>
                            <path d="M43.8697368,14.5364286 L44.6464912,16.8528571 C45.6258772,16.3828571 46.6052632,15.98 47.5846491,15.6778571 L46.8416667,13.4621429 C45.6934211,13.7978571 44.7140351,14.1671429 43.8697368,14.5364286 Z" id="Shape"></path>
                            <path d="M28.5372807,5.70714286 L27.0175439,3.39071429 C26.1732456,3.82714286 25.2951754,4.29714286 24.3833333,4.83428571 L25.9368421,7.18428571 C26.8149123,6.64714286 27.6592105,6.14357143 28.5372807,5.70714286 Z" id="Shape"></path>
                            <path d="M35.4605263,20.8142857 L37.0815789,23.2314286 C37.6557018,22.3921429 38.3311404,21.62 39.0741228,20.8478571 L37.554386,18.565 C36.7776316,19.27 36.0684211,20.0421429 35.4605263,20.8142857 Z" id="Shape"></path>
                            <path d="M30.5635965,31.6242857 L33.2991228,33.7728571 C33.4342105,32.4635714 33.670614,31.1542857 34.0083333,29.845 L31.5767544,27.9314286 C31.1377193,29.1735714 30.8337719,30.4157143 30.5635965,31.6242857 Z" id="Shape"></path>
                            <path d="M15.7714912,15.6778571 L13.3736842,13.5964286 C12.495614,14.4357143 11.6513158,15.275 10.8745614,16.1142857 L13.475,18.33 C14.1842105,17.4235714 14.9609649,16.5171429 15.7714912,15.6778571 Z" id="Shape"></path>
                            <path d="M5.57236842,30.6842857 L1.68859649,29.2742857 C1.04692982,30.7178571 0.337719298,32.3964286 0,33.3028571 L3.88377193,34.7128571 C4.32280702,33.5714286 5.03201754,31.9264286 5.57236842,30.6842857 Z" id="Shape"></path>
                            <path d="M30.0570175,40.1514286 C30.1245614,41.9307143 30.2934211,43.3742857 30.4622807,44.3814286 L34.5149123,45.825 C34.2109649,44.5157143 33.9070175,43.0385714 33.704386,41.4607143 L30.0570175,40.1514286 Z" id="Shape"></path>
                        </g>
                    </g>
                </g>
            </g>
        </g>
    </g>
</svg>