<?xml version="1.0" encoding="UTF-8"?>
<svg width="80px" height="71px" viewBox="0 0 80 71" version="1.1" xmlns="http://www.w3.org/2000/svg" xmlns:xlink="http://www.w3.org/1999/xlink">
    <!-- Generator: Sketch 41.2 (35397) - http://www.bohemiancoding.com/sketch -->
    <title>black/icon/react</title>
    <desc>Created with Sketch.</desc>
    <defs></defs>
    <g id="Page-2" stroke="none" stroke-width="1" fill="none" fill-rule="evenodd">
        <g id="Desktop-Landscape" transform="translate(-127.000000, -1257.000000)">
            <g id="Black" transform="translate(70.000000, 1100.000000)">
                <g id="black/icon/react" transform="translate(14.000000, 137.000000)">
                    <rect id="Rectangle" x="0" y="0" width="165" height="110"></rect>
                    <g id="Group" transform="translate(43.000000, 20.000000)" fill="#000000">
                        <ellipse id="Oval" cx="39" cy="35" rx="7" ry="7"></ellipse>
                        <path d="M40,23.4585153 C49.2299511,23.4585153 57.9978658,24.7753958 64.6636123,27.0976584 C72.0666803,29.6767543 76.5824258,33.4898958 76.5824258,36.4279476 C76.5824258,39.5575464 71.7055336,43.6205144 63.78686,46.2756333 C57.4827035,48.3893827 49.0480986,49.5414847 40,49.5414847 C30.4947448,49.5414847 21.9650001,48.4118323 15.733982,46.256474 C11.8330679,44.9071636 8.61158917,43.1536157 6.4034991,41.2400006 C4.41931826,39.5204339 3.41757416,37.8131772 3.41757416,36.4279476 C3.41757416,33.4800132 7.76053418,29.7198359 15.0039421,27.16418 C21.672477,24.8115312 30.6549921,23.4585153 40,23.4585153 Z M40,20 C30.2919387,20 20.9332081,21.4096844 13.8788694,23.8984442 C5.40905703,26.8868063 0,31.5700209 0,36.4279476 C0,41.4453114 5.80672003,46.4776364 14.6286183,49.5290952 C21.2597313,51.8228496 30.1481229,53 40,53 C49.3892413,53 58.1786815,51.7994303 64.8617331,49.5586393 C74.0329405,46.4835478 80,41.512355 80,36.4279476 C80,31.5524609 74.4164471,26.8376519 65.7760722,23.8275005 C58.7302435,21.3728221 49.5898645,20 40,20 Z" id="Shape"></path>
                        <path d="M45.3862748,9.56567488 C51.4091617,4.43639709 57.0383306,2.41107509 59.6030646,3.85843568 C62.3350378,5.40015948 63.3972984,11.6179213 61.6808586,19.7714076 C60.3143244,26.2626577 57.0230593,34.1218963 52.4135931,41.9438952 C47.5711744,50.1611464 42.2396816,56.9784019 37.1836961,61.3033064 C34.0185164,64.0109116 30.8466252,65.93196 28.0512526,66.8980812 C25.5393554,67.7662292 23.5386663,67.7911448 22.3293715,67.1087083 C19.7560544,65.6563959 18.6862036,60.0496103 20.1454587,52.5287284 C21.4888289,45.6049978 24.8837973,37.1732963 29.6447465,29.0943114 C34.346858,21.1152386 39.963232,14.1841809 45.3862748,9.56567488 Z M16.7215032,51.8925213 C15.015188,60.6867311 16.3476664,67.6698734 20.5883013,70.0631762 C24.9683243,72.5349368 32.319398,69.9942995 39.4773679,63.8711219 C44.8579873,59.2685248 50.4136606,52.1646148 55.4326705,43.6477005 C60.2159246,35.5307935 63.6456438,27.3409392 65.0943049,20.4595735 C67.0822524,11.0163627 65.7825323,3.40867132 61.3440862,0.90394044 C57.0881106,-1.4978414 50.1278874,1.00638141 43.0983664,6.99294009 C37.366098,11.8747964 31.511145,19.1002798 26.6256765,27.3904935 C21.6797626,35.78335 18.1425942,44.5682178 16.7215032,51.8925213 Z" id="Shape"></path>
                        <path d="M20.1989371,18.7983854 C18.6696131,11.1253987 19.6853527,5.33749392 22.2412424,3.88498526 C24.9637811,2.33767749 30.9838958,4.54376388 37.3290058,10.0746323 C42.3807171,14.4778743 47.6814924,21.1975821 52.2929033,29.0173428 C57.137231,37.2320071 60.501651,45.1620819 61.8023334,51.6128604 C62.616632,55.6512555 62.7329741,59.3022676 62.1935824,62.1566111 C61.708891,64.7214925 60.734208,66.4312598 59.5291082,67.1161308 C56.9645784,68.5735945 51.4801725,66.6792944 45.5655006,61.682741 C40.1204793,57.0829525 34.3656523,49.9889874 29.6027492,41.9125096 C24.8988506,33.9358472 21.57592,25.7072499 20.1989371,18.7983854 Z M43.2979403,64.2696014 C50.2140203,70.1121171 57.0447734,72.4714421 61.2708418,70.0696992 C65.6356608,67.5891262 67.0541193,60.0829519 65.2125939,50.9501745 C63.8283965,44.085201 60.3225123,35.8216891 55.301532,27.3074699 C50.5162638,19.1928923 44.9924884,12.1904909 39.6371934,7.52263506 C32.2884326,1.11691012 24.9225439,-1.58233858 20.4995037,0.931419833 C16.2581955,3.34174955 15.0022703,10.4982835 16.7872011,19.453711 C18.2426979,26.7565108 21.7067862,35.3346579 26.5941227,43.622386 C31.5420612,52.0126294 37.5379133,59.4037056 43.2979403,64.2696014 Z" id="Shape"></path>
                    </g>
                </g>
            </g>
        </g>
    </g>
</svg>