<?xml version="1.0" encoding="UTF-8"?>
<svg width="72px" height="67px" viewBox="0 0 72 67" version="1.1" xmlns="http://www.w3.org/2000/svg" xmlns:xlink="http://www.w3.org/1999/xlink">
    <!-- Generator: Sketch 41.2 (35397) - http://www.bohemiancoding.com/sketch -->
    <title>black/icon/sketch</title>
    <desc>Created with Sketch.</desc>
    <defs></defs>
    <g id="Page-2" stroke="none" stroke-width="1" fill="none" fill-rule="evenodd">
        <g id="Desktop-Landscape" transform="translate(-117.000000, -1688.000000)">
            <g id="Black" transform="translate(70.000000, 1100.000000)">
                <g id="black/icon/sketch" transform="translate(0.000000, 566.000000)">
                    <rect id="Rectangle" x="0" y="0" width="165" height="110"></rect>
                    <g id="Group" transform="translate(47.000000, 22.000000)" fill="#111418">
                        <path d="M61.8009231,5.5316875 L72,17.5177083 L36,67 L0,17.5177083 L10.1999077,5.53224583 L23.1000923,0 L48.8990769,0 L61.8009231,5.53224583 L61.8009231,5.5316875 Z M25.2,48.1269375 L15.5999077,30.3635625 L8.03990769,24.58565 L25.2,48.1269375 Z M53.3409231,30.7320625 L18.54,30.7320625 L35.9390769,62.8808958 L53.3409231,30.7320625 Z M46.6809231,48.1269375 L56.2790769,30.3635625 L63.8390769,24.58565 L46.6809231,48.1269375 Z M16.1390769,27.7206917 L2.99907692,17.6399833 L10.9791692,8.23541667 L22.3191692,13.8288 L16.1390769,27.7206917 Z M24.5392615,14.7508875 L18.5391692,28.2726042 L53.3400923,28.2726042 L47.3391692,14.7508875 L24.5392615,14.7508875 L24.5392615,14.7508875 Z M55.7374154,27.7206917 L68.8774154,17.6399833 L60.8992615,8.23541667 L49.5592615,13.8288 L55.7374154,27.7206917 Z M47.3383385,12.2922667 L24.5384308,12.2922667 L13.4983385,6.76002083 L23.5182462,2.457225 L48.3574154,2.45730875 L58.3792615,6.76010458 L47.3383385,12.2923504 L47.3383385,12.2922667 Z" id="Shape"></path>
                    </g>
                </g>
            </g>
        </g>
    </g>
</svg>