<?xml version="1.0" encoding="UTF-8"?>
<svg width="166px" height="22px" viewBox="0 0 166 22" version="1.1" xmlns="http://www.w3.org/2000/svg" xmlns:xlink="http://www.w3.org/1999/xlink">
    <!-- Generator: Sketch 41.2 (35397) - http://www.bohemiancoding.com/sketch -->
    <title>black/icon/wordpress</title>
    <desc>Created with Sketch.</desc>
    <defs></defs>
    <g id="Page-2" stroke="none" stroke-width="1" fill="none" fill-rule="evenodd">
        <g id="Desktop-Landscape" transform="translate(-362.000000, -1144.000000)">
            <g id="Black" transform="translate(70.000000, 1100.000000)">
                <g id="black/icon/wordpress" transform="translate(292.000000, 0.000000)">
                    <rect id="Rectangle" x="1" y="0" width="165" height="110"></rect>
                    <g id="Group" transform="translate(0.000000, 44.000000)" fill="#000000">
                        <path d="M75.4063221,19.5109282 L75.0735707,19.5109282 C73.3638007,19.5109282 73.1264418,19.0783423 73.1264418,16.8682941 L73.1264418,6.44195288 L75.4063221,6.44195288 C80.3454081,6.44195288 81.2477087,10.0928186 81.2477087,12.9279024 C81.2477087,15.8589271 80.3454081,19.5109282 75.4063221,19.5109282 L75.4063221,19.5109282 Z M55.3643619,12.8313937 L55.3643619,6.44195288 L57.3114907,6.44195288 C59.4488434,6.44195288 60.3988403,7.93102469 60.3988403,9.66023276 C60.3988403,11.3423219 59.4488434,12.8313937 57.3114907,12.8313937 L55.3643619,12.8313937 Z M75.2637945,5 L66.7626411,5 L66.7626411,5.91285836 C69.4218467,5.91285836 69.8494295,6.48907181 69.8494295,9.9009367 L69.8494295,16.0513767 C69.8494295,19.4626739 69.4218467,20.0877093 66.7626411,20.0877093 C64.7206808,19.7993188 63.3431012,18.6940108 61.4431074,16.5799035 L59.2591807,14.1774056 C62.2034416,13.6488788 63.770684,11.7749077 63.770684,9.66023276 C63.770684,7.01816634 61.5384999,5 57.359187,5 L49,5 L49,5.91285836 C51.6597668,5.91285836 52.0867885,6.48907181 52.0867885,9.9009367 L52.0867885,16.0513767 C52.0867885,19.4626739 51.6597668,20.0877093 49,20.0877093 L49,21 L58.4511503,21 L58.4511503,20.0877093 C55.7919446,20.0877093 55.3643619,19.4626739 55.3643619,16.0513767 L55.3643619,14.3216009 L56.1718312,14.3216009 L61.4431074,21 L75.2637945,21 C82.0557391,21 85,17.3485666 85,12.975589 C85,8.60374681 82.0557391,5 75.2637945,5 L75.2637945,5 Z" id="Fill-1"></path>
                        <path d="M21.3887921,14.0005514 L24.63947,4.4797574 C25.5818325,1.7268431 25.1576859,0.933994959 22.1424596,0.933994959 L22.1424596,0 L31,0 L31,0.933994959 C28.0320866,0.933994959 27.3251755,1.63366415 26.1473614,5.04048519 L20.7759503,21 L20.1642217,21 L15.3583395,6.39350977 L10.4589446,21 L9.84665936,21 L4.61718708,5.04048519 C3.48668594,1.63366415 2.73246189,0.933994959 0,0.933994959 L0,0 L10.4589446,0 L10.4589446,0.933994959 C7.67916973,0.933994959 6.92550231,1.58679899 7.91517785,4.4797574 L11.0712298,14.0005514 L15.8297991,0 L16.7248487,0 L21.3887921,14.0005514 Z" id="Fill-3"></path>
                        <path d="M38.5,6.46860396 C34.1304939,6.46860396 32.610202,10.3983084 32.610202,13.4759429 C32.610202,16.6016916 34.1304939,20.4849602 38.5,20.4849602 C42.9177694,20.4849602 44.4375,16.6016916 44.4375,13.4759429 C44.4375,10.3983084 42.9177694,6.46860396 38.5,6.46860396 M38.5,22 C33.2752245,22 29,18.1642862 29,13.4759429 C29,8.83571382 33.2752245,5 38.5,5 C43.7253367,5 48,8.83571382 48,13.4759429 C48,18.1642862 43.7253367,22 38.5,22" id="Fill-5"></path>
                        <path d="M95.5882561,1.74594123 L92.948202,1.74594123 L92.948202,10.1851347 L95.5882561,10.1851347 C98.1823391,10.1851347 99.3863439,8.29365058 99.3863439,6.01424323 C99.3863439,3.68670359 98.1823391,1.74594123 95.5882561,1.74594123 M96.607282,20.0299053 L96.607282,21 L86,21 L86,20.0299053 C89.1035959,20.0299053 89.6596272,19.2059265 89.6596272,14.3554531 L89.6596272,6.59641464 C89.6596272,1.74594123 89.1035959,0.970094682 86,0.970094682 L86,0 L95.5882561,0 C100.359399,0 103,2.57049306 103,6.01424323 C103,9.36058283 100.359399,11.9792082 95.5882561,11.9792082 L92.948202,11.9792082 L92.948202,14.3554531 C92.948202,19.2059265 93.5036861,20.0299053 96.607282,20.0299053" id="Fill-7"></path>
                        <path d="M110.315584,12.8313937 L110.315584,6.44138518 L112.24779,6.44138518 C114.368205,6.44138518 115.311478,7.930457 115.311478,9.66023276 C115.311478,11.3423219 114.368205,12.8313937 112.24779,12.8313937 L110.315584,12.8313937 Z M135.292824,16.4839625 L135.057841,17.3485666 C134.633535,18.934147 134.114568,19.5109282 130.768567,19.5109282 L130.108721,19.5109282 C127.658662,19.5109282 127.234357,18.934147 127.234357,15.5222821 L127.234357,13.3128016 C130.910002,13.3128016 131.192873,13.6483111 131.192873,16.1473176 L132.088815,16.1473176 L132.088815,8.98751064 L131.192873,8.98751064 C131.192873,11.4865172 130.910002,11.8225944 127.234357,11.8225944 L127.234357,6.44138518 L129.825851,6.44138518 C133.172409,6.44138518 133.690819,7.01816634 134.114568,8.60374681 L134.350665,9.51603747 L135.104615,9.51603747 L134.77497,5 L120.918772,5 L120.918772,5.91229066 C123.557597,5.91229066 123.981903,6.48907181 123.981903,9.9009367 L123.981903,16.0513767 C123.981903,19.1720125 123.621633,19.9582742 121.540753,20.0701107 C119.562887,19.7624184 118.205332,18.6622197 116.347741,16.5799035 L114.179439,14.1774056 C117.102248,13.6483111 118.656922,11.7749077 118.656922,9.66023276 C118.656922,7.01816634 116.442403,5 112.295121,5 L104,5 L104,5.91229066 C106.638825,5.91229066 107.063131,6.48907181 107.063131,9.9009367 L107.063131,16.0513767 C107.063131,19.4626739 106.638825,20.0871416 104,20.0871416 L104,21 L113.378715,21 L113.378715,20.0871416 C110.73989,20.0871416 110.315584,19.4626739 110.315584,16.0513767 L110.315584,14.3216009 L111.116308,14.3216009 L116.347741,21 L135.71713,21 L136,16.4839625 L135.292824,16.4839625 Z" id="Fill-9"></path>
                        <path d="M145.073188,22 C143.129538,22 141.428701,21.0058251 140.700263,20.3898506 C140.45745,20.6270651 140.020043,21.3370302 139.923033,22 L139,22 L139,15.4654117 L139.971251,15.4654117 C140.36044,18.5906009 142.595121,20.4374054 145.461803,20.4374054 C147.016264,20.4374054 148.279694,19.5853354 148.279694,18.1648457 C148.279694,16.9334562 147.162066,15.9862766 145.170199,15.0872112 L142.4011,13.808267 C140.45745,12.9080827 139,11.3454881 139,9.26202857 C139,6.98946883 141.186463,5.04811426 144.198948,5.04811426 C145.8022,5.04811426 147.162066,5.61653393 147.988089,6.27894425 C148.230902,6.08984401 148.473714,5.56841967 148.620091,5 L149.54255,5 L149.54255,10.5885276 L148.522507,10.5885276 C148.18211,8.36240374 146.919254,6.51559929 144.344176,6.51559929 C142.983736,6.51559929 141.720306,7.27367867 141.720306,8.45751333 C141.720306,9.68834332 142.740923,10.3513131 145.073188,11.3930428 L147.744702,12.6714276 C150.077541,13.7601527 151,15.5129665 151,16.9334562 C151,19.9165405 148.327912,22 145.073188,22" id="Fill-11"></path>
                        <path d="M160.073188,22 C158.129538,22 156.428701,21.0058251 155.700263,20.3898506 C155.45745,20.6270651 155.020043,21.3370302 154.923033,22 L154,22 L154,15.4654117 L154.971251,15.4654117 C155.36044,18.5906009 157.595121,20.4374054 160.461803,20.4374054 C162.016264,20.4374054 163.279694,19.5853354 163.279694,18.1648457 C163.279694,16.9334562 162.162066,15.9862766 160.170199,15.0872112 L157.4011,13.808267 C155.45745,12.9080827 154,11.3454881 154,9.26202857 C154,6.98946883 156.186463,5.04811426 159.198948,5.04811426 C160.8022,5.04811426 162.162066,5.61653393 162.988089,6.27894425 C163.230902,6.08984401 163.473714,5.56841967 163.619517,5 L164.54255,5 L164.54255,10.5885276 L163.522507,10.5885276 C163.18211,8.36240374 161.919254,6.51559929 159.344176,6.51559929 C157.983736,6.51559929 156.720306,7.27367867 156.720306,8.45751333 C156.720306,9.68834332 157.740923,10.3513131 160.073188,11.3930428 L162.744702,12.6714276 C165.077541,13.7601527 166,15.5129665 166,16.9334562 C166,19.9165405 163.327912,22 160.073188,22" id="Fill-13"></path>
                    </g>
                </g>
            </g>
        </g>
    </g>
</svg>